<?xml version="1.0" encoding="UTF-8" standalone="no"?>
<!DOCTYPE svg PUBLIC "-//W3C//DTD SVG 1.1//EN"
 "http://www.w3.org/Graphics/SVG/1.1/DTD/svg11.dtd">
<!-- Generated by graphviz version 2.47.0 (20210316.0004)
 -->
<!-- Title: dependencies Pages: 1 -->
<svg width="5674pt" height="558pt"
 viewBox="0.00 0.00 5674.00 558.00" xmlns="http://www.w3.org/2000/svg" xmlns:xlink="http://www.w3.org/1999/xlink">
<g id="graph0" class="graph" transform="scale(1 1) rotate(0) translate(4 554)">
<title>dependencies</title>
<polygon fill="white" stroke="transparent" points="-4,4 -4,-554 5670,-554 5670,4 -4,4"/>
<text text-anchor="start" x="2812.01" y="-42.4" font-family="Times-12" font-weight="bold" font-size="14.00">Legend</text>
<polygon fill="#ffffb3" stroke="transparent" points="2599,-10 2599,-30 2619,-30 2619,-10 2599,-10"/>
<text text-anchor="start" x="2622.63" y="-15.4" font-family="Times-12" font-size="14.00"> &#160;Declarations</text>
<polygon fill="#8dd3c7" stroke="transparent" points="2712,-10 2712,-30 2732,-30 2732,-10 2712,-10"/>
<text text-anchor="start" x="2735.73" y="-15.4" font-family="Times-12" font-size="14.00"> &#160;Module</text>
<polygon fill="#80b1d3" stroke="transparent" points="2798,-10 2798,-30 2818,-30 2818,-10 2798,-10"/>
<text text-anchor="start" x="2821.78" y="-15.4" font-family="Times-12" font-size="14.00"> &#160;Bootstrap</text>
<polygon fill="#fdb462" stroke="transparent" points="2895,-10 2895,-30 2915,-30 2915,-10 2895,-10"/>
<text text-anchor="start" x="2918.67" y="-15.4" font-family="Times-12" font-size="14.00"> &#160;Providers</text>
<polygon fill="#fb8072" stroke="transparent" points="2991,-10 2991,-30 3011,-30 3011,-10 2991,-10"/>
<text text-anchor="start" x="3014.73" y="-15.4" font-family="Times-12" font-size="14.00"> &#160;Exports</text>
<g id="clust1" class="cluster">
<title>cluster_AppModule</title>
<polygon fill="none" stroke="black" stroke-dasharray="1,5" points="8,-146 8,-542 3813,-542 3813,-146 8,-146"/>
</g>
<g id="clust2" class="cluster">
<title>cluster_AppModule_declarations</title>
<polygon fill="none" stroke="black" points="971,-352 971,-404 3805,-404 3805,-352 971,-352"/>
</g>
<g id="clust20" class="cluster">
<title>cluster_AppModule_imports</title>
<polygon fill="none" stroke="black" points="487,-154 487,-404 963,-404 963,-154 487,-154"/>
</g>
<g id="clust22" class="cluster">
<title>cluster_AppModule_bootstrap</title>
<polygon fill="none" stroke="black" points="1455,-482 1455,-534 1579,-534 1579,-482 1455,-482"/>
</g>
<g id="clust23" class="cluster">
<title>cluster_AppModule_providers</title>
<polygon fill="none" stroke="black" points="16,-352 16,-404 479,-404 479,-352 16,-352"/>
</g>
<g id="clust30" class="cluster">
<title>cluster_AuthModule</title>
<polygon fill="none" stroke="black" stroke-dasharray="1,5" points="3821,-146 3821,-214 5658,-214 5658,-146 3821,-146"/>
</g>
<g id="clust31" class="cluster">
<title>cluster_AuthModule_declarations</title>
<polygon fill="none" stroke="black" points="4444,-154 4444,-206 5650,-206 5650,-154 4444,-154"/>
</g>
<g id="clust41" class="cluster">
<title>cluster_AuthModule_exports</title>
<polygon fill="none" stroke="black" points="3829,-154 3829,-206 4436,-206 4436,-154 3829,-154"/>
</g>
<g id="clust44" class="cluster">
<title>cluster_AuxiliaryModule</title>
<polygon fill="none" stroke="black" stroke-dasharray="1,5" points="470,-70 470,-138 1526,-138 1526,-70 470,-70"/>
</g>
<g id="clust45" class="cluster">
<title>cluster_AuxiliaryModule_declarations</title>
<polygon fill="none" stroke="black" points="730,-78 730,-130 1518,-130 1518,-78 730,-78"/>
</g>
<g id="clust51" class="cluster">
<title>cluster_AuxiliaryModule_imports</title>
<polygon fill="none" stroke="black" points="626,-78 626,-130 722,-130 722,-78 626,-78"/>
</g>
<g id="clust52" class="cluster">
<title>cluster_AuxiliaryModule_exports</title>
<polygon fill="none" stroke="black" points="478,-78 478,-130 618,-130 618,-78 478,-78"/>
</g>
<g id="clust55" class="cluster">
<title>cluster_HostingModule</title>
<polygon fill="none" stroke="black" stroke-dasharray="1,5" points="3821,-276 3821,-344 5437,-344 5437,-276 3821,-276"/>
</g>
<g id="clust56" class="cluster">
<title>cluster_HostingModule_declarations</title>
<polygon fill="none" stroke="black" points="4309,-284 4309,-336 5429,-336 5429,-284 4309,-284"/>
</g>
<g id="clust63" class="cluster">
<title>cluster_HostingModule_imports</title>
<polygon fill="none" stroke="black" points="4155,-284 4155,-336 4301,-336 4301,-284 4155,-284"/>
</g>
<g id="clust65" class="cluster">
<title>cluster_HostingModule_bootstrap</title>
<polygon fill="none" stroke="black" points="3995,-284 3995,-336 4147,-336 4147,-284 3995,-284"/>
</g>
<g id="clust66" class="cluster">
<title>cluster_HostingModule_providers</title>
<polygon fill="none" stroke="black" points="3829,-284 3829,-336 3987,-336 3987,-284 3829,-284"/>
</g>
<!-- AdInfoStepComponent -->
<g id="node1" class="node">
<title>AdInfoStepComponent</title>
<polygon fill="#ffffb3" stroke="black" points="3246.15,-396 3099.85,-396 3099.85,-360 3246.15,-360 3246.15,-396"/>
<text text-anchor="middle" x="3173" y="-373.8" font-family="Times,serif" font-size="14.00">AdInfoStepComponent</text>
</g>
<!-- AppModule -->
<g id="node18" class="node">
<title>AppModule</title>
<polygon fill="#8dd3c7" stroke="black" points="1558.66,-461 1555.66,-465 1534.66,-465 1531.66,-461 1475.34,-461 1475.34,-425 1558.66,-425 1558.66,-461"/>
<text text-anchor="middle" x="1517" y="-438.8" font-family="Times,serif" font-size="14.00">AppModule</text>
</g>
<!-- AdInfoStepComponent&#45;&gt;AppModule -->
<g id="edge1" class="edge">
<title>AdInfoStepComponent&#45;&gt;AppModule</title>
<path fill="none" stroke="black" d="M3173,-396.04C3173,-417.66 3173,-451 3173,-451 3173,-451 1568.76,-451 1568.76,-451"/>
<polygon fill="black" stroke="black" points="1568.76,-447.5 1558.76,-451 1568.76,-454.5 1568.76,-447.5"/>
</g>
<!-- AmenitiesStepComponent -->
<g id="node2" class="node">
<title>AmenitiesStepComponent</title>
<polygon fill="#ffffb3" stroke="black" points="3081.76,-396 2918.24,-396 2918.24,-360 3081.76,-360 3081.76,-396"/>
<text text-anchor="middle" x="3000" y="-373.8" font-family="Times,serif" font-size="14.00">AmenitiesStepComponent</text>
</g>
<!-- AmenitiesStepComponent&#45;&gt;AppModule -->
<g id="edge2" class="edge">
<title>AmenitiesStepComponent&#45;&gt;AppModule</title>
<path fill="none" stroke="black" d="M3000,-396.28C3000,-417.32 3000,-449 3000,-449 3000,-449 1568.99,-449 1568.99,-449"/>
<polygon fill="black" stroke="black" points="1568.99,-445.5 1558.99,-449 1568.99,-452.5 1568.99,-445.5"/>
</g>
<!-- AmenityComponent -->
<g id="node3" class="node">
<title>AmenityComponent</title>
<polygon fill="#ffffb3" stroke="black" points="2900.33,-396 2769.67,-396 2769.67,-360 2900.33,-360 2900.33,-396"/>
<text text-anchor="middle" x="2835" y="-373.8" font-family="Times,serif" font-size="14.00">AmenityComponent</text>
</g>
<!-- AmenityComponent&#45;&gt;AppModule -->
<g id="edge3" class="edge">
<title>AmenityComponent&#45;&gt;AppModule</title>
<path fill="none" stroke="black" d="M2835,-396.22C2835,-416.37 2835,-446 2835,-446 2835,-446 1568.99,-446 1568.99,-446"/>
<polygon fill="black" stroke="black" points="1568.99,-442.5 1558.99,-446 1568.99,-449.5 1568.99,-442.5"/>
</g>
<!-- AppComponent -->
<g id="node4" class="node">
<title>AppComponent</title>
<polygon fill="#ffffb3" stroke="black" points="2751.94,-396 2646.06,-396 2646.06,-360 2751.94,-360 2751.94,-396"/>
<text text-anchor="middle" x="2699" y="-373.8" font-family="Times,serif" font-size="14.00">AppComponent</text>
</g>
<!-- AppComponent&#45;&gt;AppModule -->
<g id="edge4" class="edge">
<title>AppComponent&#45;&gt;AppModule</title>
<path fill="none" stroke="black" d="M2699,-396.11C2699,-415.34 2699,-443 2699,-443 2699,-443 1568.72,-443 1568.72,-443"/>
<polygon fill="black" stroke="black" points="1568.72,-439.5 1558.72,-443 1568.72,-446.5 1568.72,-439.5"/>
</g>
<!-- BookingComponent -->
<g id="node5" class="node">
<title>BookingComponent</title>
<polygon fill="#ffffb3" stroke="black" points="2628.56,-396 2499.44,-396 2499.44,-360 2628.56,-360 2628.56,-396"/>
<text text-anchor="middle" x="2564" y="-373.8" font-family="Times,serif" font-size="14.00">BookingComponent</text>
</g>
<!-- BookingComponent&#45;&gt;AppModule -->
<g id="edge5" class="edge">
<title>BookingComponent&#45;&gt;AppModule</title>
<path fill="none" stroke="black" d="M2564,-396.22C2564,-414.83 2564,-441 2564,-441 2564,-441 1568.69,-441 1568.69,-441"/>
<polygon fill="black" stroke="black" points="1568.69,-437.5 1558.69,-441 1568.69,-444.5 1568.69,-437.5"/>
</g>
<!-- ChatComponent -->
<g id="node6" class="node">
<title>ChatComponent</title>
<polygon fill="#ffffb3" stroke="black" points="2480.77,-396 2373.23,-396 2373.23,-360 2480.77,-360 2480.77,-396"/>
<text text-anchor="middle" x="2427" y="-373.8" font-family="Times,serif" font-size="14.00">ChatComponent</text>
</g>
<!-- ChatComponent&#45;&gt;AppModule -->
<g id="edge6" class="edge">
<title>ChatComponent&#45;&gt;AppModule</title>
<path fill="none" stroke="black" d="M2427,-396C2427,-413.68 2427,-438 2427,-438 2427,-438 1568.77,-438 1568.77,-438"/>
<polygon fill="black" stroke="black" points="1568.77,-434.5 1558.77,-438 1568.77,-441.5 1568.77,-434.5"/>
</g>
<!-- FavoriteSidebarComponent -->
<g id="node7" class="node">
<title>FavoriteSidebarComponent</title>
<polygon fill="#ffffb3" stroke="black" points="2355.25,-396 2184.75,-396 2184.75,-360 2355.25,-360 2355.25,-396"/>
<text text-anchor="middle" x="2270" y="-373.8" font-family="Times,serif" font-size="14.00">FavoriteSidebarComponent</text>
</g>
<!-- FavoriteSidebarComponent&#45;&gt;AppModule -->
<g id="edge7" class="edge">
<title>FavoriteSidebarComponent&#45;&gt;AppModule</title>
<path fill="none" stroke="black" d="M2270,-396.03C2270,-413.06 2270,-436 2270,-436 2270,-436 1568.83,-436 1568.83,-436"/>
<polygon fill="black" stroke="black" points="1568.83,-432.5 1558.83,-436 1568.83,-439.5 1568.83,-432.5"/>
</g>
<!-- FavoritebarPropertyComponent -->
<g id="node8" class="node">
<title>FavoritebarPropertyComponent</title>
<polygon fill="#ffffb3" stroke="black" points="2167.07,-396 1972.93,-396 1972.93,-360 2167.07,-360 2167.07,-396"/>
<text text-anchor="middle" x="2070" y="-373.8" font-family="Times,serif" font-size="14.00">FavoritebarPropertyComponent</text>
</g>
<!-- FavoritebarPropertyComponent&#45;&gt;AppModule -->
<g id="edge8" class="edge">
<title>FavoritebarPropertyComponent&#45;&gt;AppModule</title>
<path fill="none" stroke="black" d="M2070,-396.01C2070,-412.05 2070,-433 2070,-433 2070,-433 1569.02,-433 1569.02,-433"/>
<polygon fill="black" stroke="black" points="1569.02,-429.5 1559.02,-433 1569.02,-436.5 1569.02,-429.5"/>
</g>
<!-- HomepageComponent -->
<g id="node9" class="node">
<title>HomepageComponent</title>
<polygon fill="#ffffb3" stroke="black" points="1954.97,-396 1813.03,-396 1813.03,-360 1954.97,-360 1954.97,-396"/>
<text text-anchor="middle" x="1884" y="-373.8" font-family="Times,serif" font-size="14.00">HomepageComponent</text>
</g>
<!-- HomepageComponent&#45;&gt;AppModule -->
<g id="edge9" class="edge">
<title>HomepageComponent&#45;&gt;AppModule</title>
<path fill="none" stroke="black" d="M1884,-396.24C1884,-411.57 1884,-431 1884,-431 1884,-431 1568.74,-431 1568.74,-431"/>
<polygon fill="black" stroke="black" points="1568.74,-427.5 1558.74,-431 1568.74,-434.5 1568.74,-427.5"/>
</g>
<!-- HomepagePropertyComponent -->
<g id="node10" class="node">
<title>HomepagePropertyComponent</title>
<polygon fill="#ffffb3" stroke="black" points="1795.18,-396 1604.82,-396 1604.82,-360 1795.18,-360 1795.18,-396"/>
<text text-anchor="middle" x="1700" y="-373.8" font-family="Times,serif" font-size="14.00">HomepagePropertyComponent</text>
</g>
<!-- HomepagePropertyComponent&#45;&gt;AppModule -->
<g id="edge10" class="edge">
<title>HomepagePropertyComponent&#45;&gt;AppModule</title>
<path fill="none" stroke="black" d="M1700,-396.05C1700,-410.37 1700,-428 1700,-428 1700,-428 1568.98,-428 1568.98,-428"/>
<polygon fill="black" stroke="black" points="1568.98,-424.5 1558.98,-428 1568.98,-431.5 1568.98,-424.5"/>
</g>
<!-- InitialStepComponent -->
<g id="node11" class="node">
<title>InitialStepComponent</title>
<polygon fill="#ffffb3" stroke="black" points="1586.66,-396 1447.34,-396 1447.34,-360 1586.66,-360 1586.66,-396"/>
<text text-anchor="middle" x="1517" y="-373.8" font-family="Times,serif" font-size="14.00">InitialStepComponent</text>
</g>
<!-- InitialStepComponent&#45;&gt;AppModule -->
<g id="edge11" class="edge">
<title>InitialStepComponent&#45;&gt;AppModule</title>
<path fill="none" stroke="black" d="M1517,-396.11C1517,-396.11 1517,-414.99 1517,-414.99"/>
<polygon fill="black" stroke="black" points="1513.5,-414.99 1517,-424.99 1520.5,-414.99 1513.5,-414.99"/>
</g>
<!-- LocationStepComponent -->
<g id="node12" class="node">
<title>LocationStepComponent</title>
<polygon fill="#ffffb3" stroke="black" points="1428.98,-396 1273.02,-396 1273.02,-360 1428.98,-360 1428.98,-396"/>
<text text-anchor="middle" x="1351" y="-373.8" font-family="Times,serif" font-size="14.00">LocationStepComponent</text>
</g>
<!-- LocationStepComponent&#45;&gt;AppModule -->
<g id="edge12" class="edge">
<title>LocationStepComponent&#45;&gt;AppModule</title>
<path fill="none" stroke="black" d="M1351,-396.05C1351,-410.37 1351,-428 1351,-428 1351,-428 1465.11,-428 1465.11,-428"/>
<polygon fill="black" stroke="black" points="1465.11,-431.5 1475.11,-428 1465.11,-424.5 1465.11,-431.5"/>
</g>
<!-- MenuComponent -->
<g id="node13" class="node">
<title>MenuComponent</title>
<polygon fill="#ffffb3" stroke="black" points="1254.99,-396 1141.01,-396 1141.01,-360 1254.99,-360 1254.99,-396"/>
<text text-anchor="middle" x="1198" y="-373.8" font-family="Times,serif" font-size="14.00">MenuComponent</text>
</g>
<!-- MenuComponent&#45;&gt;AppModule -->
<g id="edge13" class="edge">
<title>MenuComponent&#45;&gt;AppModule</title>
<path fill="none" stroke="black" d="M1198,-396.24C1198,-411.57 1198,-431 1198,-431 1198,-431 1465.3,-431 1465.3,-431"/>
<polygon fill="black" stroke="black" points="1465.3,-434.5 1475.3,-431 1465.3,-427.5 1465.3,-434.5"/>
</g>
<!-- PhotosStepComponent -->
<g id="node14" class="node">
<title>PhotosStepComponent</title>
<polygon fill="#ffffb3" stroke="black" points="1123.34,-396 978.66,-396 978.66,-360 1123.34,-360 1123.34,-396"/>
<text text-anchor="middle" x="1051" y="-373.8" font-family="Times,serif" font-size="14.00">PhotosStepComponent</text>
</g>
<!-- PhotosStepComponent&#45;&gt;AppModule -->
<g id="edge14" class="edge">
<title>PhotosStepComponent&#45;&gt;AppModule</title>
<path fill="none" stroke="black" d="M1051,-396C1051,-413.68 1051,-438 1051,-438 1051,-438 1465.24,-438 1465.24,-438"/>
<polygon fill="black" stroke="black" points="1465.24,-441.5 1475.24,-438 1465.24,-434.5 1465.24,-441.5"/>
</g>
<!-- ProfileComponent -->
<g id="node15" class="node">
<title>ProfileComponent</title>
<polygon fill="#ffffb3" stroke="black" points="3796.93,-396 3677.07,-396 3677.07,-360 3796.93,-360 3796.93,-396"/>
<text text-anchor="middle" x="3737" y="-373.8" font-family="Times,serif" font-size="14.00">ProfileComponent</text>
</g>
<!-- ProfileComponent&#45;&gt;AppModule -->
<g id="edge15" class="edge">
<title>ProfileComponent&#45;&gt;AppModule</title>
<path fill="none" stroke="black" d="M3737,-396.38C3737,-420.28 3737,-459 3737,-459 3737,-459 1568.88,-459 1568.88,-459"/>
<polygon fill="black" stroke="black" points="1568.88,-455.5 1558.88,-459 1568.88,-462.5 1568.88,-455.5"/>
</g>
<!-- PropertyAdCreateComponent -->
<g id="node16" class="node">
<title>PropertyAdCreateComponent</title>
<polygon fill="#ffffb3" stroke="black" points="3659.68,-396 3476.32,-396 3476.32,-360 3659.68,-360 3659.68,-396"/>
<text text-anchor="middle" x="3568" y="-373.8" font-family="Times,serif" font-size="14.00">PropertyAdCreateComponent</text>
</g>
<!-- PropertyAdCreateComponent&#45;&gt;AppModule -->
<g id="edge16" class="edge">
<title>PropertyAdCreateComponent&#45;&gt;AppModule</title>
<path fill="none" stroke="black" d="M3568,-396.09C3568,-419.13 3568,-456 3568,-456 3568,-456 1568.9,-456 1568.9,-456"/>
<polygon fill="black" stroke="black" points="1568.9,-452.5 1558.9,-456 1568.9,-459.5 1568.9,-452.5"/>
</g>
<!-- PropertyAdRetrieveComponent -->
<g id="node17" class="node">
<title>PropertyAdRetrieveComponent</title>
<polygon fill="#ffffb3" stroke="black" points="3458.07,-396 3263.93,-396 3263.93,-360 3458.07,-360 3458.07,-396"/>
<text text-anchor="middle" x="3361" y="-373.8" font-family="Times,serif" font-size="14.00">PropertyAdRetrieveComponent</text>
</g>
<!-- PropertyAdRetrieveComponent&#45;&gt;AppModule -->
<g id="edge17" class="edge">
<title>PropertyAdRetrieveComponent&#45;&gt;AppModule</title>
<path fill="none" stroke="black" d="M3361,-396.01C3361,-418.49 3361,-454 3361,-454 3361,-454 1568.98,-454 1568.98,-454"/>
<polygon fill="black" stroke="black" points="1568.98,-450.5 1558.98,-454 1568.98,-457.5 1568.98,-450.5"/>
</g>
<!-- AppComponent  -->
<g id="node26" class="node">
<title>AppComponent </title>
<polygon fill="#80b1d3" stroke="black" points="1571.44,-526 1462.56,-526 1462.56,-490 1571.44,-490 1571.44,-526"/>
<text text-anchor="middle" x="1517" y="-503.8" font-family="Times,serif" font-size="14.00">AppComponent </text>
</g>
<!-- AppModule&#45;&gt;AppComponent  -->
<g id="edge25" class="edge">
<title>AppModule&#45;&gt;AppComponent </title>
<path fill="none" stroke="black" stroke-dasharray="1,5" d="M1517,-461.11C1517,-461.11 1517,-479.99 1517,-479.99"/>
<polygon fill="black" stroke="black" points="1513.5,-479.99 1517,-489.99 1520.5,-479.99 1513.5,-479.99"/>
</g>
<!-- AppRoutingModule -->
<g id="node19" class="node">
<title>AppRoutingModule</title>
<polygon fill="#8dd3c7" stroke="black" points="955.27,-328 952.27,-332 931.27,-332 928.27,-328 826.73,-328 826.73,-292 955.27,-292 955.27,-328"/>
<text text-anchor="middle" x="891" y="-305.8" font-family="Times,serif" font-size="14.00">AppRoutingModule</text>
</g>
<!-- AppRoutingModule&#45;&gt;AppModule -->
<g id="edge18" class="edge">
<title>AppRoutingModule&#45;&gt;AppModule</title>
<path fill="none" stroke="black" d="M838.84,-328.21C838.84,-364.64 838.84,-443 838.84,-443 838.84,-443 1465.09,-443 1465.09,-443"/>
<polygon fill="black" stroke="black" points="1465.09,-446.5 1475.09,-443 1465.09,-439.5 1465.09,-446.5"/>
</g>
<!-- HostingModule -->
<g id="node23" class="node">
<title>HostingModule</title>
<polygon fill="#8dd3c7" stroke="black" points="954.88,-396 951.88,-400 930.88,-400 927.88,-396 851.12,-396 851.12,-360 954.88,-360 954.88,-396"/>
<text text-anchor="middle" x="903" y="-373.8" font-family="Times,serif" font-size="14.00">HostingModule</text>
</g>
<!-- AppRoutingModule&#45;&gt;HostingModule -->
<g id="edge57" class="edge">
<title>AppRoutingModule&#45;&gt;HostingModule</title>
<path fill="none" stroke="black" d="M861.45,-328.22C861.45,-328.22 861.45,-349.73 861.45,-349.73"/>
<polygon fill="black" stroke="black" points="857.95,-349.73 861.45,-359.73 864.95,-349.73 857.95,-349.73"/>
</g>
<!-- AuthModule -->
<g id="node20" class="node">
<title>AuthModule</title>
<polygon fill="#8dd3c7" stroke="black" points="954.55,-263 951.55,-267 930.55,-267 927.55,-263 867.45,-263 867.45,-227 954.55,-227 954.55,-263"/>
<text text-anchor="middle" x="911" y="-240.8" font-family="Times,serif" font-size="14.00">AuthModule</text>
</g>
<!-- AuthModule&#45;&gt;AppModule -->
<g id="edge19" class="edge">
<title>AuthModule&#45;&gt;AppModule</title>
<path fill="none" stroke="black" d="M954.61,-261C1018.27,-261 1129.11,-261 1129.11,-261 1129.11,-261 1129.11,-436 1129.11,-436 1129.11,-436 1465.12,-436 1465.12,-436"/>
<polygon fill="black" stroke="black" points="1465.12,-439.5 1475.12,-436 1465.12,-432.5 1465.12,-439.5"/>
</g>
<!-- AuthModule&#45;&gt;AppRoutingModule -->
<g id="edge29" class="edge">
<title>AuthModule&#45;&gt;AppRoutingModule</title>
<path fill="none" stroke="black" d="M911,-263.11C911,-263.11 911,-281.99 911,-281.99"/>
<polygon fill="black" stroke="black" points="907.5,-281.99 911,-291.99 914.5,-281.99 907.5,-281.99"/>
</g>
<!-- RecoverPwComponent  -->
<g id="node38" class="node">
<title>RecoverPwComponent </title>
<polygon fill="#fb8072" stroke="black" points="4427.86,-198 4278.14,-198 4278.14,-162 4427.86,-162 4427.86,-198"/>
<text text-anchor="middle" x="4353" y="-175.8" font-family="Times,serif" font-size="14.00">RecoverPwComponent </text>
</g>
<!-- AuthModule&#45;&gt;RecoverPwComponent  -->
<g id="edge39" class="edge">
<title>AuthModule&#45;&gt;RecoverPwComponent </title>
<path fill="none" stroke="black" stroke-dasharray="5,2" d="M954.59,-238C1348.94,-238 4285.74,-238 4285.74,-238 4285.74,-238 4285.74,-208.03 4285.74,-208.03"/>
<polygon fill="black" stroke="black" points="4289.24,-208.03 4285.74,-198.03 4282.24,-208.03 4289.24,-208.03"/>
</g>
<!-- RegisterComponent  -->
<g id="node39" class="node">
<title>RegisterComponent </title>
<polygon fill="#fb8072" stroke="black" points="4260.99,-198 4129.01,-198 4129.01,-162 4260.99,-162 4260.99,-198"/>
<text text-anchor="middle" x="4195" y="-175.8" font-family="Times,serif" font-size="14.00">RegisterComponent </text>
</g>
<!-- AuthModule&#45;&gt;RegisterComponent  -->
<g id="edge40" class="edge">
<title>AuthModule&#45;&gt;RegisterComponent </title>
<path fill="none" stroke="black" stroke-dasharray="5,2" d="M954.73,-235C1339.51,-235 4133.97,-235 4133.97,-235 4133.97,-235 4133.97,-208.01 4133.97,-208.01"/>
<polygon fill="black" stroke="black" points="4137.47,-208.01 4133.97,-198.01 4130.47,-208.01 4137.47,-208.01"/>
</g>
<!-- ResetPwComponent  -->
<g id="node40" class="node">
<title>ResetPwComponent </title>
<polygon fill="#fb8072" stroke="black" points="4110.82,-198 3977.18,-198 3977.18,-162 4110.82,-162 4110.82,-198"/>
<text text-anchor="middle" x="4044" y="-175.8" font-family="Times,serif" font-size="14.00">ResetPwComponent </text>
</g>
<!-- AuthModule&#45;&gt;ResetPwComponent  -->
<g id="edge41" class="edge">
<title>AuthModule&#45;&gt;ResetPwComponent </title>
<path fill="none" stroke="black" stroke-dasharray="5,2" d="M954.83,-233C1330.29,-233 3990.94,-233 3990.94,-233 3990.94,-233 3990.94,-208.24 3990.94,-208.24"/>
<polygon fill="black" stroke="black" points="3994.44,-208.24 3990.94,-198.24 3987.44,-208.24 3994.44,-208.24"/>
</g>
<!-- SignInComponent  -->
<g id="node41" class="node">
<title>SignInComponent </title>
<polygon fill="#fb8072" stroke="black" points="3959.17,-198 3836.83,-198 3836.83,-162 3959.17,-162 3959.17,-198"/>
<text text-anchor="middle" x="3898" y="-175.8" font-family="Times,serif" font-size="14.00">SignInComponent </text>
</g>
<!-- AuthModule&#45;&gt;SignInComponent  -->
<g id="edge42" class="edge">
<title>AuthModule&#45;&gt;SignInComponent </title>
<path fill="none" stroke="black" stroke-dasharray="5,2" d="M954.67,-230C1323.09,-230 3898.26,-230 3898.26,-230 3898.26,-230 3898.26,-208.05 3898.26,-208.05"/>
<polygon fill="black" stroke="black" points="3901.76,-208.05 3898.26,-198.05 3894.76,-208.05 3901.76,-208.05"/>
</g>
<!-- AuxiliaryModule -->
<g id="node21" class="node">
<title>AuxiliaryModule</title>
<polygon fill="#8dd3c7" stroke="black" points="954.7,-198 951.7,-202 930.7,-202 927.7,-198 841.3,-198 841.3,-162 954.7,-162 954.7,-198"/>
<text text-anchor="middle" x="898" y="-175.8" font-family="Times,serif" font-size="14.00">AuxiliaryModule</text>
</g>
<!-- AuxiliaryModule&#45;&gt;AppModule -->
<g id="edge20" class="edge">
<title>AuxiliaryModule&#45;&gt;AppModule</title>
<path fill="none" stroke="black" d="M954.78,-186C1024.91,-186 1135.06,-186 1135.06,-186 1135.06,-186 1135.06,-433 1135.06,-433 1135.06,-433 1465.03,-433 1465.03,-433"/>
<polygon fill="black" stroke="black" points="1465.03,-436.5 1475.03,-433 1465.03,-429.5 1465.03,-436.5"/>
</g>
<!-- AuxiliaryModule&#45;&gt;AuthModule -->
<g id="edge38" class="edge">
<title>AuxiliaryModule&#45;&gt;AuthModule</title>
<path fill="none" stroke="black" d="M910.91,-198.11C910.91,-198.11 910.91,-216.99 910.91,-216.99"/>
<polygon fill="black" stroke="black" points="907.41,-216.99 910.91,-226.99 914.41,-216.99 907.41,-216.99"/>
</g>
<!-- AuxiliaryModule&#45;&gt;HostingModule -->
<g id="edge58" class="edge">
<title>AuxiliaryModule&#45;&gt;HostingModule</title>
<path fill="none" stroke="black" d="M954.68,-192C959.85,-192 963.2,-192 963.2,-192 963.2,-192 963.2,-372 963.2,-372 963.2,-372 962.39,-372 962.39,-372"/>
<polygon fill="black" stroke="black" points="965.08,-368.5 955.08,-372 965.08,-375.5 965.08,-368.5"/>
</g>
<!-- LoaderComponent  -->
<g id="node48" class="node">
<title>LoaderComponent </title>
<polygon fill="#fb8072" stroke="black" points="610.48,-122 485.52,-122 485.52,-86 610.48,-86 610.48,-122"/>
<text text-anchor="middle" x="548" y="-99.8" font-family="Times,serif" font-size="14.00">LoaderComponent </text>
</g>
<!-- AuxiliaryModule&#45;&gt;LoaderComponent  -->
<g id="edge50" class="edge">
<title>AuxiliaryModule&#45;&gt;LoaderComponent </title>
<path fill="none" stroke="black" stroke-dasharray="5,2" d="M850.42,-161.97C850.42,-155.15 850.42,-149 850.42,-149 850.42,-149 602.91,-149 602.91,-149 602.91,-149 602.91,-132.04 602.91,-132.04"/>
<polygon fill="black" stroke="black" points="606.41,-132.04 602.91,-122.04 599.41,-132.04 606.41,-132.04"/>
</g>
<!-- GoogleMap -->
<g id="node22" class="node">
<title>GoogleMap</title>
<polygon fill="#8dd3c7" stroke="black" points="577.37,-198 574.37,-202 553.37,-202 550.37,-198 494.63,-198 494.63,-162 577.37,-162 577.37,-198"/>
<text text-anchor="middle" x="536" y="-175.8" font-family="Times,serif" font-size="14.00">GoogleMap</text>
</g>
<!-- GoogleMap&#45;&gt;AppModule -->
<g id="edge21" class="edge">
<title>GoogleMap&#45;&gt;AppModule</title>
<path fill="none" stroke="black" d="M536,-198.2C536,-258.96 536,-451 536,-451 536,-451 1465.16,-451 1465.16,-451"/>
<polygon fill="black" stroke="black" points="1465.16,-454.5 1475.16,-451 1465.16,-447.5 1465.16,-454.5"/>
</g>
<!-- HostingModule&#45;&gt;AppModule -->
<g id="edge22" class="edge">
<title>HostingModule&#45;&gt;AppModule</title>
<path fill="none" stroke="black" d="M903,-396.22C903,-414.83 903,-441 903,-441 903,-441 1465.28,-441 1465.28,-441"/>
<polygon fill="black" stroke="black" points="1465.28,-444.5 1475.28,-441 1465.28,-437.5 1465.28,-444.5"/>
</g>
<!-- CalendarComponent  -->
<g id="node56" class="node">
<title>CalendarComponent </title>
<polygon fill="#80b1d3" stroke="black" points="4138.86,-328 4003.14,-328 4003.14,-292 4138.86,-292 4138.86,-328"/>
<text text-anchor="middle" x="4071" y="-305.8" font-family="Times,serif" font-size="14.00">CalendarComponent </text>
</g>
<!-- HostingModule&#45;&gt;CalendarComponent  -->
<g id="edge60" class="edge">
<title>HostingModule&#45;&gt;CalendarComponent </title>
<path fill="none" stroke="black" stroke-dasharray="1,5" d="M944.55,-359.82C944.55,-346.96 944.55,-332 944.55,-332 944.55,-332 4071,-332 4071,-332 4071,-332 4071,-331.62 4071,-331.62"/>
<polygon fill="black" stroke="black" points="4074.5,-338.17 4071,-328.17 4067.5,-338.17 4074.5,-338.17"/>
</g>
<!-- MapMarker -->
<g id="node24" class="node">
<title>MapMarker</title>
<polygon fill="#8dd3c7" stroke="black" points="678.35,-198 675.35,-202 654.35,-202 651.35,-198 595.65,-198 595.65,-162 678.35,-162 678.35,-198"/>
<text text-anchor="middle" x="637" y="-175.8" font-family="Times,serif" font-size="14.00">MapMarker</text>
</g>
<!-- MapMarker&#45;&gt;AppModule -->
<g id="edge23" class="edge">
<title>MapMarker&#45;&gt;AppModule</title>
<path fill="none" stroke="black" d="M637,-198.07C637,-258.38 637,-449 637,-449 637,-449 1465.15,-449 1465.15,-449"/>
<polygon fill="black" stroke="black" points="1465.15,-452.5 1475.15,-449 1465.15,-445.5 1465.15,-452.5"/>
</g>
<!-- NgOptimizedImage -->
<g id="node25" class="node">
<title>NgOptimizedImage</title>
<polygon fill="#8dd3c7" stroke="black" points="823.69,-198 820.69,-202 799.69,-202 796.69,-198 696.31,-198 696.31,-162 823.69,-162 823.69,-198"/>
<text text-anchor="middle" x="760" y="-175.8" font-family="Times,serif" font-size="14.00">NgOptimizedImage</text>
</g>
<!-- NgOptimizedImage&#45;&gt;AppModule -->
<g id="edge24" class="edge">
<title>NgOptimizedImage&#45;&gt;AppModule</title>
<path fill="none" stroke="black" d="M760,-198.28C760,-258.38 760,-446 760,-446 760,-446 1465.22,-446 1465.22,-446"/>
<polygon fill="black" stroke="black" points="1465.22,-449.5 1475.22,-446 1465.22,-442.5 1465.22,-449.5"/>
</g>
<!-- AuthGuard -->
<g id="node27" class="node">
<title>AuthGuard</title>
<ellipse fill="#fdb462" stroke="black" cx="417" cy="-378" rx="54.46" ry="18"/>
<text text-anchor="middle" x="417" y="-373.8" font-family="Times,serif" font-size="14.00">AuthGuard</text>
</g>
<!-- AuthGuard&#45;&gt;AppModule -->
<g id="edge26" class="edge">
<title>AuthGuard&#45;&gt;AppModule</title>
<path fill="none" stroke="black" d="M417,-396.01C417,-418.49 417,-454 417,-454 417,-454 1465.22,-454 1465.22,-454"/>
<polygon fill="black" stroke="black" points="1465.22,-457.5 1475.22,-454 1465.22,-450.5 1465.22,-457.5"/>
</g>
<!-- AuthInterceptor -->
<g id="node28" class="node">
<title>AuthInterceptor</title>
<ellipse fill="#fdb462" stroke="black" cx="272" cy="-378" rx="72.91" ry="18"/>
<text text-anchor="middle" x="272" y="-373.8" font-family="Times,serif" font-size="14.00">AuthInterceptor</text>
</g>
<!-- AuthInterceptor&#45;&gt;AppModule -->
<g id="edge27" class="edge">
<title>AuthInterceptor&#45;&gt;AppModule</title>
<path fill="none" stroke="black" d="M272,-396.09C272,-419.13 272,-456 272,-456 272,-456 1465.22,-456 1465.22,-456"/>
<polygon fill="black" stroke="black" points="1465.22,-459.5 1475.22,-456 1465.22,-452.5 1465.22,-459.5"/>
</g>
<!-- AuthorizeService -->
<g id="node29" class="node">
<title>AuthorizeService</title>
<ellipse fill="#fdb462" stroke="black" cx="103" cy="-378" rx="78.71" ry="18"/>
<text text-anchor="middle" x="103" y="-373.8" font-family="Times,serif" font-size="14.00">AuthorizeService</text>
</g>
<!-- AuthorizeService&#45;&gt;AppModule -->
<g id="edge28" class="edge">
<title>AuthorizeService&#45;&gt;AppModule</title>
<path fill="none" stroke="black" d="M103,-396.38C103,-420.28 103,-459 103,-459 103,-459 1465.07,-459 1465.07,-459"/>
<polygon fill="black" stroke="black" points="1465.07,-462.5 1475.07,-459 1465.07,-455.5 1465.07,-462.5"/>
</g>
<!-- ConfirmEmailComponent -->
<g id="node30" class="node">
<title>ConfirmEmailComponent</title>
<polygon fill="#ffffb3" stroke="black" points="5642.21,-198 5479.79,-198 5479.79,-162 5642.21,-162 5642.21,-198"/>
<text text-anchor="middle" x="5561" y="-175.8" font-family="Times,serif" font-size="14.00">ConfirmEmailComponent</text>
</g>
<!-- ConfirmEmailComponent&#45;&gt;AuthModule -->
<g id="edge30" class="edge">
<title>ConfirmEmailComponent&#45;&gt;AuthModule</title>
<path fill="none" stroke="black" d="M5561,-198.09C5561,-221.13 5561,-258 5561,-258 5561,-258 964.79,-258 964.79,-258"/>
<polygon fill="black" stroke="black" points="964.79,-254.5 954.79,-258 964.79,-261.5 964.79,-254.5"/>
</g>
<!-- GoogleComponent -->
<g id="node31" class="node">
<title>GoogleComponent</title>
<polygon fill="#ffffb3" stroke="black" points="5462.05,-198 5339.95,-198 5339.95,-162 5462.05,-162 5462.05,-198"/>
<text text-anchor="middle" x="5401" y="-175.8" font-family="Times,serif" font-size="14.00">GoogleComponent</text>
</g>
<!-- GoogleComponent&#45;&gt;AuthModule -->
<g id="edge31" class="edge">
<title>GoogleComponent&#45;&gt;AuthModule</title>
<path fill="none" stroke="black" d="M5380.61,-198.01C5380.61,-220.49 5380.61,-256 5380.61,-256 5380.61,-256 964.88,-256 964.88,-256"/>
<polygon fill="black" stroke="black" points="964.88,-252.5 954.88,-256 964.88,-259.5 964.88,-252.5"/>
</g>
<!-- LogoutComponent -->
<g id="node32" class="node">
<title>LogoutComponent</title>
<polygon fill="#ffffb3" stroke="black" points="5321.78,-198 5200.22,-198 5200.22,-162 5321.78,-162 5321.78,-198"/>
<text text-anchor="middle" x="5261" y="-175.8" font-family="Times,serif" font-size="14.00">LogoutComponent</text>
</g>
<!-- LogoutComponent&#45;&gt;AuthModule -->
<g id="edge32" class="edge">
<title>LogoutComponent&#45;&gt;AuthModule</title>
<path fill="none" stroke="black" d="M5213.3,-198.04C5213.3,-219.66 5213.3,-253 5213.3,-253 5213.3,-253 964.63,-253 964.63,-253"/>
<polygon fill="black" stroke="black" points="964.63,-249.5 954.63,-253 964.63,-256.5 964.63,-249.5"/>
</g>
<!-- MicrosoftComponent -->
<g id="node33" class="node">
<title>MicrosoftComponent</title>
<polygon fill="#ffffb3" stroke="black" points="5182.04,-198 5045.96,-198 5045.96,-162 5182.04,-162 5182.04,-198"/>
<text text-anchor="middle" x="5114" y="-175.8" font-family="Times,serif" font-size="14.00">MicrosoftComponent</text>
</g>
<!-- MicrosoftComponent&#45;&gt;AuthModule -->
<g id="edge33" class="edge">
<title>MicrosoftComponent&#45;&gt;AuthModule</title>
<path fill="none" stroke="black" d="M5054.72,-198.28C5054.72,-219.32 5054.72,-251 5054.72,-251 5054.72,-251 964.73,-251 964.73,-251"/>
<polygon fill="black" stroke="black" points="964.73,-247.5 954.73,-251 964.73,-254.5 964.73,-247.5"/>
</g>
<!-- RecoverPwComponent -->
<g id="node34" class="node">
<title>RecoverPwComponent</title>
<polygon fill="#ffffb3" stroke="black" points="5027.86,-198 4882.14,-198 4882.14,-162 5027.86,-162 5027.86,-198"/>
<text text-anchor="middle" x="4955" y="-175.8" font-family="Times,serif" font-size="14.00">RecoverPwComponent</text>
</g>
<!-- RecoverPwComponent&#45;&gt;AuthModule -->
<g id="edge34" class="edge">
<title>RecoverPwComponent&#45;&gt;AuthModule</title>
<path fill="none" stroke="black" d="M4888.95,-198.22C4888.95,-218.37 4888.95,-248 4888.95,-248 4888.95,-248 964.66,-248 964.66,-248"/>
<polygon fill="black" stroke="black" points="964.66,-244.5 954.66,-248 964.66,-251.5 964.66,-244.5"/>
</g>
<!-- RegisterComponent -->
<g id="node35" class="node">
<title>RegisterComponent</title>
<polygon fill="#ffffb3" stroke="black" points="4863.98,-198 4736.02,-198 4736.02,-162 4863.98,-162 4863.98,-198"/>
<text text-anchor="middle" x="4800" y="-175.8" font-family="Times,serif" font-size="14.00">RegisterComponent</text>
</g>
<!-- RegisterComponent&#45;&gt;AuthModule -->
<g id="edge35" class="edge">
<title>RegisterComponent&#45;&gt;AuthModule</title>
<path fill="none" stroke="black" d="M4800,-198.11C4800,-217.34 4800,-245 4800,-245 4800,-245 964.68,-245 964.68,-245"/>
<polygon fill="black" stroke="black" points="964.68,-241.5 954.68,-245 964.68,-248.5 964.68,-241.5"/>
</g>
<!-- ResetPwComponent -->
<g id="node36" class="node">
<title>ResetPwComponent</title>
<polygon fill="#ffffb3" stroke="black" points="4718.32,-198 4587.68,-198 4587.68,-162 4718.32,-162 4718.32,-198"/>
<text text-anchor="middle" x="4653" y="-175.8" font-family="Times,serif" font-size="14.00">ResetPwComponent</text>
</g>
<!-- ResetPwComponent&#45;&gt;AuthModule -->
<g id="edge36" class="edge">
<title>ResetPwComponent&#45;&gt;AuthModule</title>
<path fill="none" stroke="black" d="M4648.89,-198.22C4648.89,-216.83 4648.89,-243 4648.89,-243 4648.89,-243 964.6,-243 964.6,-243"/>
<polygon fill="black" stroke="black" points="964.6,-239.5 954.6,-243 964.6,-246.5 964.6,-239.5"/>
</g>
<!-- SignInComponent -->
<g id="node37" class="node">
<title>SignInComponent</title>
<polygon fill="#ffffb3" stroke="black" points="4570.17,-198 4451.83,-198 4451.83,-162 4570.17,-162 4570.17,-198"/>
<text text-anchor="middle" x="4511" y="-175.8" font-family="Times,serif" font-size="14.00">SignInComponent</text>
</g>
<!-- SignInComponent&#45;&gt;AuthModule -->
<g id="edge37" class="edge">
<title>SignInComponent&#45;&gt;AuthModule</title>
<path fill="none" stroke="black" d="M4485.1,-198C4485.1,-215.68 4485.1,-240 4485.1,-240 4485.1,-240 964.58,-240 964.58,-240"/>
<polygon fill="black" stroke="black" points="964.58,-236.5 954.58,-240 964.58,-243.5 964.58,-236.5"/>
</g>
<!-- BadRequestComponent -->
<g id="node42" class="node">
<title>BadRequestComponent</title>
<polygon fill="#ffffb3" stroke="black" points="886.48,-122 737.52,-122 737.52,-86 886.48,-86 886.48,-122"/>
<text text-anchor="middle" x="812" y="-99.8" font-family="Times,serif" font-size="14.00">BadRequestComponent</text>
</g>
<!-- BadRequestComponent&#45;&gt;AuxiliaryModule -->
<g id="edge43" class="edge">
<title>BadRequestComponent&#45;&gt;AuxiliaryModule</title>
<path fill="none" stroke="black" d="M877.47,-122.01C877.47,-122.01 877.47,-151.85 877.47,-151.85"/>
<polygon fill="black" stroke="black" points="873.97,-151.85 877.47,-161.85 880.97,-151.85 873.97,-151.85"/>
</g>
<!-- BadRequestComponent&#45;&gt;AuxiliaryModule -->
<g id="edge44" class="edge">
<title>BadRequestComponent&#45;&gt;AuxiliaryModule</title>
<path fill="none" stroke="black" d="M868.45,-122.01C868.45,-122.01 868.45,-151.85 868.45,-151.85"/>
<polygon fill="black" stroke="black" points="864.95,-151.85 868.45,-161.85 871.95,-151.85 864.95,-151.85"/>
</g>
<!-- ForbiddenComponent -->
<g id="node43" class="node">
<title>ForbiddenComponent</title>
<polygon fill="#ffffb3" stroke="black" points="1510.38,-122 1371.62,-122 1371.62,-86 1510.38,-86 1510.38,-122"/>
<text text-anchor="middle" x="1441" y="-99.8" font-family="Times,serif" font-size="14.00">ForbiddenComponent</text>
</g>
<!-- ForbiddenComponent&#45;&gt;AuxiliaryModule -->
<g id="edge45" class="edge">
<title>ForbiddenComponent&#45;&gt;AuxiliaryModule</title>
<path fill="none" stroke="black" d="M1400.28,-122.01C1400.28,-144.49 1400.28,-180 1400.28,-180 1400.28,-180 964.64,-180 964.64,-180"/>
<polygon fill="black" stroke="black" points="964.64,-176.5 954.64,-180 964.64,-183.5 964.64,-176.5"/>
</g>
<!-- LoaderComponent -->
<g id="node44" class="node">
<title>LoaderComponent</title>
<polygon fill="#ffffb3" stroke="black" points="1353.47,-122 1232.53,-122 1232.53,-86 1353.47,-86 1353.47,-122"/>
<text text-anchor="middle" x="1293" y="-99.8" font-family="Times,serif" font-size="14.00">LoaderComponent</text>
</g>
<!-- LoaderComponent&#45;&gt;AuxiliaryModule -->
<g id="edge46" class="edge">
<title>LoaderComponent&#45;&gt;AuxiliaryModule</title>
<path fill="none" stroke="black" d="M1243.75,-122.03C1243.75,-142.77 1243.75,-174 1243.75,-174 1243.75,-174 964.71,-174 964.71,-174"/>
<polygon fill="black" stroke="black" points="964.71,-170.5 954.71,-174 964.71,-177.5 964.71,-170.5"/>
</g>
<!-- NotfoundComponent -->
<g id="node45" class="node">
<title>NotfoundComponent</title>
<polygon fill="#ffffb3" stroke="black" points="1214.49,-122 1079.51,-122 1079.51,-86 1214.49,-86 1214.49,-122"/>
<text text-anchor="middle" x="1147" y="-99.8" font-family="Times,serif" font-size="14.00">NotfoundComponent</text>
</g>
<!-- NotfoundComponent&#45;&gt;AuxiliaryModule -->
<g id="edge47" class="edge">
<title>NotfoundComponent&#45;&gt;AuxiliaryModule</title>
<path fill="none" stroke="black" d="M1101.34,-122.17C1101.34,-141.09 1101.34,-168 1101.34,-168 1101.34,-168 964.64,-168 964.64,-168"/>
<polygon fill="black" stroke="black" points="964.64,-164.5 954.64,-168 964.64,-171.5 964.64,-164.5"/>
</g>
<!-- UnauthorizedComponent -->
<g id="node46" class="node">
<title>UnauthorizedComponent</title>
<polygon fill="#ffffb3" stroke="black" points="1061.53,-122 904.47,-122 904.47,-86 1061.53,-86 1061.53,-122"/>
<text text-anchor="middle" x="983" y="-99.8" font-family="Times,serif" font-size="14.00">UnauthorizedComponent</text>
</g>
<!-- UnauthorizedComponent&#45;&gt;AuxiliaryModule -->
<g id="edge48" class="edge">
<title>UnauthorizedComponent&#45;&gt;AuxiliaryModule</title>
<path fill="none" stroke="black" d="M929.42,-122.01C929.42,-122.01 929.42,-151.85 929.42,-151.85"/>
<polygon fill="black" stroke="black" points="925.92,-151.85 929.42,-161.85 932.92,-151.85 925.92,-151.85"/>
</g>
<!-- RouterLink -->
<g id="node47" class="node">
<title>RouterLink</title>
<polygon fill="#8dd3c7" stroke="black" points="714.05,-122 711.05,-126 690.05,-126 687.05,-122 633.95,-122 633.95,-86 714.05,-86 714.05,-122"/>
<text text-anchor="middle" x="674" y="-99.8" font-family="Times,serif" font-size="14.00">RouterLink</text>
</g>
<!-- RouterLink&#45;&gt;AuxiliaryModule -->
<g id="edge49" class="edge">
<title>RouterLink&#45;&gt;AuxiliaryModule</title>
<path fill="none" stroke="black" d="M705.34,-122.24C705.34,-129.43 705.34,-136 705.34,-136 705.34,-136 859.44,-136 859.44,-136 859.44,-136 859.44,-151.85 859.44,-151.85"/>
<polygon fill="black" stroke="black" points="855.94,-151.85 859.44,-161.85 862.94,-151.85 855.94,-151.85"/>
</g>
<!-- CalendarComponent -->
<g id="node49" class="node">
<title>CalendarComponent</title>
<polygon fill="#ffffb3" stroke="black" points="5045.86,-328 4914.14,-328 4914.14,-292 5045.86,-292 5045.86,-328"/>
<text text-anchor="middle" x="4980" y="-305.8" font-family="Times,serif" font-size="14.00">CalendarComponent</text>
</g>
<!-- CalendarComponent&#45;&gt;HostingModule -->
<g id="edge51" class="edge">
<title>CalendarComponent&#45;&gt;HostingModule</title>
<path fill="none" stroke="black" d="M4980,-328.13C4980,-338.71 4980,-350 4980,-350 4980,-350 913.39,-350 913.39,-350 913.39,-350 913.39,-350.98 913.39,-350.98"/>
<polygon fill="black" stroke="black" points="909.89,-349.79 913.39,-359.79 916.89,-349.79 909.89,-349.79"/>
</g>
<!-- CalendarPopupComponent -->
<g id="node50" class="node">
<title>CalendarPopupComponent</title>
<polygon fill="#ffffb3" stroke="black" points="4895.65,-328 4728.35,-328 4728.35,-292 4895.65,-292 4895.65,-328"/>
<text text-anchor="middle" x="4812" y="-305.8" font-family="Times,serif" font-size="14.00">CalendarPopupComponent</text>
</g>
<!-- CalendarPopupComponent&#45;&gt;HostingModule -->
<g id="edge52" class="edge">
<title>CalendarPopupComponent&#45;&gt;HostingModule</title>
<path fill="none" stroke="black" d="M4812,-328.42C4812,-337.28 4812,-346 4812,-346 4812,-346 903,-346 903,-346 903,-346 903,-349.76 903,-349.76"/>
<polygon fill="black" stroke="black" points="899.5,-349.76 903,-359.76 906.5,-349.76 899.5,-349.76"/>
</g>
<!-- HostingBookingComponent -->
<g id="node51" class="node">
<title>HostingBookingComponent</title>
<polygon fill="#ffffb3" stroke="black" points="4709.89,-328 4536.11,-328 4536.11,-292 4709.89,-292 4709.89,-328"/>
<text text-anchor="middle" x="4623" y="-305.8" font-family="Times,serif" font-size="14.00">HostingBookingComponent</text>
</g>
<!-- HostingBookingComponent&#45;&gt;HostingModule -->
<g id="edge53" class="edge">
<title>HostingBookingComponent&#45;&gt;HostingModule</title>
<path fill="none" stroke="black" d="M4623,-328.04C4623,-335.75 4623,-343 4623,-343 4623,-343 892.61,-343 892.61,-343 892.61,-343 892.61,-349.68 892.61,-349.68"/>
<polygon fill="black" stroke="black" points="889.11,-349.68 892.61,-359.68 896.11,-349.68 889.11,-349.68"/>
</g>
<!-- PropertyPerformanceComponent -->
<g id="node52" class="node">
<title>PropertyPerformanceComponent</title>
<polygon fill="#ffffb3" stroke="black" points="4518.55,-328 4317.45,-328 4317.45,-292 4518.55,-292 4518.55,-328"/>
<text text-anchor="middle" x="4418" y="-305.8" font-family="Times,serif" font-size="14.00">PropertyPerformanceComponent</text>
</g>
<!-- PropertyPerformanceComponent&#45;&gt;HostingModule -->
<g id="edge54" class="edge">
<title>PropertyPerformanceComponent&#45;&gt;HostingModule</title>
<path fill="none" stroke="black" d="M4418,-328.2C4418,-334.03 4418,-339 4418,-339 4418,-339 882.22,-339 882.22,-339 882.22,-339 882.22,-349.87 882.22,-349.87"/>
<polygon fill="black" stroke="black" points="878.72,-349.87 882.22,-359.87 885.72,-349.87 878.72,-349.87"/>
</g>
<!-- PropertyPromoteComponent -->
<g id="node53" class="node">
<title>PropertyPromoteComponent</title>
<polygon fill="#ffffb3" stroke="black" points="5421.48,-328 5244.52,-328 5244.52,-292 5421.48,-292 5421.48,-328"/>
<text text-anchor="middle" x="5333" y="-305.8" font-family="Times,serif" font-size="14.00">PropertyPromoteComponent</text>
</g>
<!-- PropertyPromoteComponent&#45;&gt;HostingModule -->
<g id="edge55" class="edge">
<title>PropertyPromoteComponent&#45;&gt;HostingModule</title>
<path fill="none" stroke="black" d="M5333,-328.04C5333,-341.29 5333,-357 5333,-357 5333,-357 934.16,-357 934.16,-357 934.16,-357 934.16,-357.29 934.16,-357.29"/>
<polygon fill="black" stroke="black" points="930.67,-349.92 934.16,-359.92 937.67,-349.92 930.67,-349.92"/>
</g>
<!-- SidePropertiesComponent -->
<g id="node54" class="node">
<title>SidePropertiesComponent</title>
<polygon fill="#ffffb3" stroke="black" points="5226.48,-328 5063.52,-328 5063.52,-292 5226.48,-292 5226.48,-328"/>
<text text-anchor="middle" x="5145" y="-305.8" font-family="Times,serif" font-size="14.00">SidePropertiesComponent</text>
</g>
<!-- SidePropertiesComponent&#45;&gt;HostingModule -->
<g id="edge56" class="edge">
<title>SidePropertiesComponent&#45;&gt;HostingModule</title>
<path fill="none" stroke="black" d="M5145,-328.49C5145,-340.14 5145,-353 5145,-353 5145,-353 923.78,-353 923.78,-353 923.78,-353 923.78,-353.68 923.78,-353.68"/>
<polygon fill="black" stroke="black" points="920.28,-349.83 923.78,-359.83 927.28,-349.83 920.28,-349.83"/>
</g>
<!-- PaymentComponent -->
<g id="node55" class="node">
<title>PaymentComponent</title>
<polygon fill="#8dd3c7" stroke="black" points="4293.33,-328 4290.33,-332 4269.33,-332 4266.33,-328 4162.67,-328 4162.67,-292 4293.33,-292 4293.33,-328"/>
<text text-anchor="middle" x="4228" y="-305.8" font-family="Times,serif" font-size="14.00">PaymentComponent</text>
</g>
<!-- PaymentComponent&#45;&gt;HostingModule -->
<g id="edge59" class="edge">
<title>PaymentComponent&#45;&gt;HostingModule</title>
<path fill="none" stroke="black" d="M4228,-328.06C4228,-332.49 4228,-336 4228,-336 4228,-336 871.84,-336 871.84,-336 871.84,-336 871.84,-349.94 871.84,-349.94"/>
<polygon fill="black" stroke="black" points="868.34,-349.94 871.84,-359.94 875.34,-349.94 868.34,-349.94"/>
</g>
<!-- HostingService -->
<g id="node57" class="node">
<title>HostingService</title>
<ellipse fill="#fdb462" stroke="black" cx="3908" cy="-310" rx="70.64" ry="18"/>
<text text-anchor="middle" x="3908" y="-305.8" font-family="Times,serif" font-size="14.00">HostingService</text>
</g>
<!-- HostingService&#45;&gt;HostingModule -->
<g id="edge61" class="edge">
<title>HostingService&#45;&gt;HostingModule</title>
<path fill="none" stroke="black" d="M3837.22,-310C3389.63,-310 971.02,-310 971.02,-310 971.02,-310 971.02,-384 971.02,-384 971.02,-384 964.9,-384 964.9,-384"/>
<polygon fill="black" stroke="black" points="964.9,-380.5 954.9,-384 964.9,-387.5 964.9,-380.5"/>
</g>
</g>
</svg>
