<?xml version="1.0" encoding="UTF-8" standalone="no"?>
<!DOCTYPE svg PUBLIC "-//W3C//DTD SVG 1.1//EN"
 "http://www.w3.org/Graphics/SVG/1.1/DTD/svg11.dtd">
<!-- Generated by graphviz version 2.47.0 (20210316.0004)
 -->
<!-- Title: dependencies Pages: 1 -->
<svg width="4202pt" height="284pt"
 viewBox="0.00 0.00 4202.00 284.00" xmlns="http://www.w3.org/2000/svg" xmlns:xlink="http://www.w3.org/1999/xlink">
<g id="graph0" class="graph" transform="scale(1 1) rotate(0) translate(4 280)">
<title>dependencies</title>
<polygon fill="white" stroke="transparent" points="-4,4 -4,-280 4198,-280 4198,4 -4,4"/>
<text text-anchor="start" x="2076.01" y="-42.4" font-family="Times-12" font-weight="bold" font-size="14.00">Legend</text>
<polygon fill="#ffffb3" stroke="transparent" points="1863,-10 1863,-30 1883,-30 1883,-10 1863,-10"/>
<text text-anchor="start" x="1886.63" y="-15.4" font-family="Times-12" font-size="14.00"> &#160;Declarations</text>
<polygon fill="#8dd3c7" stroke="transparent" points="1976,-10 1976,-30 1996,-30 1996,-10 1976,-10"/>
<text text-anchor="start" x="1999.73" y="-15.4" font-family="Times-12" font-size="14.00"> &#160;Module</text>
<polygon fill="#80b1d3" stroke="transparent" points="2062,-10 2062,-30 2082,-30 2082,-10 2062,-10"/>
<text text-anchor="start" x="2085.78" y="-15.4" font-family="Times-12" font-size="14.00"> &#160;Bootstrap</text>
<polygon fill="#fdb462" stroke="transparent" points="2159,-10 2159,-30 2179,-30 2179,-10 2159,-10"/>
<text text-anchor="start" x="2182.67" y="-15.4" font-family="Times-12" font-size="14.00"> &#160;Providers</text>
<polygon fill="#fb8072" stroke="transparent" points="2255,-10 2255,-30 2275,-30 2275,-10 2255,-10"/>
<text text-anchor="start" x="2278.73" y="-15.4" font-family="Times-12" font-size="14.00"> &#160;Exports</text>
<g id="clust1" class="cluster">
<title>cluster_AppModule</title>
<polygon fill="none" stroke="black" stroke-dasharray="1,5" points="8,-70 8,-268 4186,-268 4186,-70 8,-70"/>
</g>
<g id="clust2" class="cluster">
<title>cluster_AppModule_declarations</title>
<polygon fill="none" stroke="black" points="1344,-78 1344,-130 4178,-130 4178,-78 1344,-78"/>
</g>
<g id="clust23" class="cluster">
<title>cluster_AppModule_providers</title>
<polygon fill="none" stroke="black" points="873,-78 873,-130 1336,-130 1336,-78 873,-78"/>
</g>
<g id="clust20" class="cluster">
<title>cluster_AppModule_imports</title>
<polygon fill="none" stroke="black" points="16,-78 16,-130 865,-130 865,-78 16,-78"/>
</g>
<g id="clust22" class="cluster">
<title>cluster_AppModule_bootstrap</title>
<polygon fill="none" stroke="black" points="1913,-208 1913,-260 2037,-260 2037,-208 1913,-208"/>
</g>
<!-- AdInfoStepComponent -->
<g id="node1" class="node">
<title>AdInfoStepComponent</title>
<polygon fill="#ffffb3" stroke="black" points="4170.15,-122 4023.85,-122 4023.85,-86 4170.15,-86 4170.15,-122"/>
<text text-anchor="middle" x="4097" y="-99.8" font-family="Times,serif" font-size="14.00">AdInfoStepComponent</text>
</g>
<!-- AppModule -->
<g id="node18" class="node">
<title>AppModule</title>
<polygon fill="#8dd3c7" stroke="black" points="2016.66,-187 2013.66,-191 1992.66,-191 1989.66,-187 1933.34,-187 1933.34,-151 2016.66,-151 2016.66,-187"/>
<text text-anchor="middle" x="1975" y="-164.8" font-family="Times,serif" font-size="14.00">AppModule</text>
</g>
<!-- AdInfoStepComponent&#45;&gt;AppModule -->
<g id="edge1" class="edge">
<title>AdInfoStepComponent&#45;&gt;AppModule</title>
<path fill="none" stroke="black" d="M4097,-122.38C4097,-146.28 4097,-185 4097,-185 4097,-185 2026.91,-185 2026.91,-185"/>
<polygon fill="black" stroke="black" points="2026.91,-181.5 2016.91,-185 2026.91,-188.5 2026.91,-181.5"/>
</g>
<!-- AmenitiesStepComponent -->
<g id="node2" class="node">
<title>AmenitiesStepComponent</title>
<polygon fill="#ffffb3" stroke="black" points="4005.76,-122 3842.24,-122 3842.24,-86 4005.76,-86 4005.76,-122"/>
<text text-anchor="middle" x="3924" y="-99.8" font-family="Times,serif" font-size="14.00">AmenitiesStepComponent</text>
</g>
<!-- AmenitiesStepComponent&#45;&gt;AppModule -->
<g id="edge2" class="edge">
<title>AmenitiesStepComponent&#45;&gt;AppModule</title>
<path fill="none" stroke="black" d="M3924,-122.09C3924,-145.13 3924,-182 3924,-182 3924,-182 2027.06,-182 2027.06,-182"/>
<polygon fill="black" stroke="black" points="2027.06,-178.5 2017.06,-182 2027.06,-185.5 2027.06,-178.5"/>
</g>
<!-- AmenityComponent -->
<g id="node3" class="node">
<title>AmenityComponent</title>
<polygon fill="#ffffb3" stroke="black" points="3824.33,-122 3693.67,-122 3693.67,-86 3824.33,-86 3824.33,-122"/>
<text text-anchor="middle" x="3759" y="-99.8" font-family="Times,serif" font-size="14.00">AmenityComponent</text>
</g>
<!-- AmenityComponent&#45;&gt;AppModule -->
<g id="edge3" class="edge">
<title>AmenityComponent&#45;&gt;AppModule</title>
<path fill="none" stroke="black" d="M3759,-122.01C3759,-144.49 3759,-180 3759,-180 3759,-180 2026.9,-180 2026.9,-180"/>
<polygon fill="black" stroke="black" points="2026.9,-176.5 2016.9,-180 2026.9,-183.5 2026.9,-176.5"/>
</g>
<!-- AppComponent -->
<g id="node4" class="node">
<title>AppComponent</title>
<polygon fill="#ffffb3" stroke="black" points="3675.94,-122 3570.06,-122 3570.06,-86 3675.94,-86 3675.94,-122"/>
<text text-anchor="middle" x="3623" y="-99.8" font-family="Times,serif" font-size="14.00">AppComponent</text>
</g>
<!-- AppComponent&#45;&gt;AppModule -->
<g id="edge4" class="edge">
<title>AppComponent&#45;&gt;AppModule</title>
<path fill="none" stroke="black" d="M3623,-122.04C3623,-143.66 3623,-177 3623,-177 3623,-177 2026.98,-177 2026.98,-177"/>
<polygon fill="black" stroke="black" points="2026.98,-173.5 2016.98,-177 2026.98,-180.5 2026.98,-173.5"/>
</g>
<!-- BookingComponent -->
<g id="node5" class="node">
<title>BookingComponent</title>
<polygon fill="#ffffb3" stroke="black" points="3552.56,-122 3423.44,-122 3423.44,-86 3552.56,-86 3552.56,-122"/>
<text text-anchor="middle" x="3488" y="-99.8" font-family="Times,serif" font-size="14.00">BookingComponent</text>
</g>
<!-- BookingComponent&#45;&gt;AppModule -->
<g id="edge5" class="edge">
<title>BookingComponent&#45;&gt;AppModule</title>
<path fill="none" stroke="black" d="M3488,-122.28C3488,-143.32 3488,-175 3488,-175 3488,-175 2027.05,-175 2027.05,-175"/>
<polygon fill="black" stroke="black" points="2027.05,-171.5 2017.05,-175 2027.05,-178.5 2027.05,-171.5"/>
</g>
<!-- ChatComponent -->
<g id="node6" class="node">
<title>ChatComponent</title>
<polygon fill="#ffffb3" stroke="black" points="3404.77,-122 3297.23,-122 3297.23,-86 3404.77,-86 3404.77,-122"/>
<text text-anchor="middle" x="3351" y="-99.8" font-family="Times,serif" font-size="14.00">ChatComponent</text>
</g>
<!-- ChatComponent&#45;&gt;AppModule -->
<g id="edge6" class="edge">
<title>ChatComponent&#45;&gt;AppModule</title>
<path fill="none" stroke="black" d="M3351,-122.22C3351,-142.37 3351,-172 3351,-172 3351,-172 2026.93,-172 2026.93,-172"/>
<polygon fill="black" stroke="black" points="2026.93,-168.5 2016.93,-172 2026.93,-175.5 2026.93,-168.5"/>
</g>
<!-- FavoriteSidebarComponent -->
<g id="node7" class="node">
<title>FavoriteSidebarComponent</title>
<polygon fill="#ffffb3" stroke="black" points="3279.25,-122 3108.75,-122 3108.75,-86 3279.25,-86 3279.25,-122"/>
<text text-anchor="middle" x="3194" y="-99.8" font-family="Times,serif" font-size="14.00">FavoriteSidebarComponent</text>
</g>
<!-- FavoriteSidebarComponent&#45;&gt;AppModule -->
<g id="edge7" class="edge">
<title>FavoriteSidebarComponent&#45;&gt;AppModule</title>
<path fill="none" stroke="black" d="M3194,-122.11C3194,-141.34 3194,-169 3194,-169 3194,-169 2026.96,-169 2026.96,-169"/>
<polygon fill="black" stroke="black" points="2026.96,-165.5 2016.96,-169 2026.96,-172.5 2026.96,-165.5"/>
</g>
<!-- FavoritebarPropertyComponent -->
<g id="node8" class="node">
<title>FavoritebarPropertyComponent</title>
<polygon fill="#ffffb3" stroke="black" points="3091.07,-122 2896.93,-122 2896.93,-86 3091.07,-86 3091.07,-122"/>
<text text-anchor="middle" x="2994" y="-99.8" font-family="Times,serif" font-size="14.00">FavoritebarPropertyComponent</text>
</g>
<!-- FavoritebarPropertyComponent&#45;&gt;AppModule -->
<g id="edge8" class="edge">
<title>FavoritebarPropertyComponent&#45;&gt;AppModule</title>
<path fill="none" stroke="black" d="M2994,-122.22C2994,-140.83 2994,-167 2994,-167 2994,-167 2026.85,-167 2026.85,-167"/>
<polygon fill="black" stroke="black" points="2026.85,-163.5 2016.85,-167 2026.85,-170.5 2026.85,-163.5"/>
</g>
<!-- HomepageComponent -->
<g id="node9" class="node">
<title>HomepageComponent</title>
<polygon fill="#ffffb3" stroke="black" points="2878.97,-122 2737.03,-122 2737.03,-86 2878.97,-86 2878.97,-122"/>
<text text-anchor="middle" x="2808" y="-99.8" font-family="Times,serif" font-size="14.00">HomepageComponent</text>
</g>
<!-- HomepageComponent&#45;&gt;AppModule -->
<g id="edge9" class="edge">
<title>HomepageComponent&#45;&gt;AppModule</title>
<path fill="none" stroke="black" d="M2808,-122C2808,-139.68 2808,-164 2808,-164 2808,-164 2026.88,-164 2026.88,-164"/>
<polygon fill="black" stroke="black" points="2026.88,-160.5 2016.88,-164 2026.88,-167.5 2026.88,-160.5"/>
</g>
<!-- HomepagePropertyComponent -->
<g id="node10" class="node">
<title>HomepagePropertyComponent</title>
<polygon fill="#ffffb3" stroke="black" points="2719.18,-122 2528.82,-122 2528.82,-86 2719.18,-86 2719.18,-122"/>
<text text-anchor="middle" x="2624" y="-99.8" font-family="Times,serif" font-size="14.00">HomepagePropertyComponent</text>
</g>
<!-- HomepagePropertyComponent&#45;&gt;AppModule -->
<g id="edge10" class="edge">
<title>HomepagePropertyComponent&#45;&gt;AppModule</title>
<path fill="none" stroke="black" d="M2624,-122.03C2624,-139.06 2624,-162 2624,-162 2624,-162 2027.08,-162 2027.08,-162"/>
<polygon fill="black" stroke="black" points="2027.08,-158.5 2017.08,-162 2027.08,-165.5 2027.08,-158.5"/>
</g>
<!-- InitialStepComponent -->
<g id="node11" class="node">
<title>InitialStepComponent</title>
<polygon fill="#ffffb3" stroke="black" points="2510.66,-122 2371.34,-122 2371.34,-86 2510.66,-86 2510.66,-122"/>
<text text-anchor="middle" x="2441" y="-99.8" font-family="Times,serif" font-size="14.00">InitialStepComponent</text>
</g>
<!-- InitialStepComponent&#45;&gt;AppModule -->
<g id="edge11" class="edge">
<title>InitialStepComponent&#45;&gt;AppModule</title>
<path fill="none" stroke="black" d="M2441,-122.01C2441,-138.05 2441,-159 2441,-159 2441,-159 2026.76,-159 2026.76,-159"/>
<polygon fill="black" stroke="black" points="2026.76,-155.5 2016.76,-159 2026.76,-162.5 2026.76,-155.5"/>
</g>
<!-- LocationStepComponent -->
<g id="node12" class="node">
<title>LocationStepComponent</title>
<polygon fill="#ffffb3" stroke="black" points="2352.98,-122 2197.02,-122 2197.02,-86 2352.98,-86 2352.98,-122"/>
<text text-anchor="middle" x="2275" y="-99.8" font-family="Times,serif" font-size="14.00">LocationStepComponent</text>
</g>
<!-- LocationStepComponent&#45;&gt;AppModule -->
<g id="edge12" class="edge">
<title>LocationStepComponent&#45;&gt;AppModule</title>
<path fill="none" stroke="black" d="M2275,-122.24C2275,-137.57 2275,-157 2275,-157 2275,-157 2026.71,-157 2026.71,-157"/>
<polygon fill="black" stroke="black" points="2026.71,-153.5 2016.71,-157 2026.71,-160.5 2026.71,-153.5"/>
</g>
<!-- MenuComponent -->
<g id="node13" class="node">
<title>MenuComponent</title>
<polygon fill="#ffffb3" stroke="black" points="2178.99,-122 2065.01,-122 2065.01,-86 2178.99,-86 2178.99,-122"/>
<text text-anchor="middle" x="2122" y="-99.8" font-family="Times,serif" font-size="14.00">MenuComponent</text>
</g>
<!-- MenuComponent&#45;&gt;AppModule -->
<g id="edge13" class="edge">
<title>MenuComponent&#45;&gt;AppModule</title>
<path fill="none" stroke="black" d="M2122,-122.05C2122,-136.37 2122,-154 2122,-154 2122,-154 2026.73,-154 2026.73,-154"/>
<polygon fill="black" stroke="black" points="2026.73,-150.5 2016.73,-154 2026.73,-157.5 2026.73,-150.5"/>
</g>
<!-- PhotosStepComponent -->
<g id="node14" class="node">
<title>PhotosStepComponent</title>
<polygon fill="#ffffb3" stroke="black" points="2047.34,-122 1902.66,-122 1902.66,-86 2047.34,-86 2047.34,-122"/>
<text text-anchor="middle" x="1975" y="-99.8" font-family="Times,serif" font-size="14.00">PhotosStepComponent</text>
</g>
<!-- PhotosStepComponent&#45;&gt;AppModule -->
<g id="edge14" class="edge">
<title>PhotosStepComponent&#45;&gt;AppModule</title>
<path fill="none" stroke="black" d="M1975,-122.11C1975,-122.11 1975,-140.99 1975,-140.99"/>
<polygon fill="black" stroke="black" points="1971.5,-140.99 1975,-150.99 1978.5,-140.99 1971.5,-140.99"/>
</g>
<!-- ProfileComponent -->
<g id="node15" class="node">
<title>ProfileComponent</title>
<polygon fill="#ffffb3" stroke="black" points="1884.93,-122 1765.07,-122 1765.07,-86 1884.93,-86 1884.93,-122"/>
<text text-anchor="middle" x="1825" y="-99.8" font-family="Times,serif" font-size="14.00">ProfileComponent</text>
</g>
<!-- ProfileComponent&#45;&gt;AppModule -->
<g id="edge15" class="edge">
<title>ProfileComponent&#45;&gt;AppModule</title>
<path fill="none" stroke="black" d="M1825,-122.05C1825,-136.37 1825,-154 1825,-154 1825,-154 1923.22,-154 1923.22,-154"/>
<polygon fill="black" stroke="black" points="1923.22,-157.5 1933.22,-154 1923.22,-150.5 1923.22,-157.5"/>
</g>
<!-- PropertyAdCreateComponent -->
<g id="node16" class="node">
<title>PropertyAdCreateComponent</title>
<polygon fill="#ffffb3" stroke="black" points="1747.68,-122 1564.32,-122 1564.32,-86 1747.68,-86 1747.68,-122"/>
<text text-anchor="middle" x="1656" y="-99.8" font-family="Times,serif" font-size="14.00">PropertyAdCreateComponent</text>
</g>
<!-- PropertyAdCreateComponent&#45;&gt;AppModule -->
<g id="edge16" class="edge">
<title>PropertyAdCreateComponent&#45;&gt;AppModule</title>
<path fill="none" stroke="black" d="M1656,-122.24C1656,-137.57 1656,-157 1656,-157 1656,-157 1923.3,-157 1923.3,-157"/>
<polygon fill="black" stroke="black" points="1923.3,-160.5 1933.3,-157 1923.3,-153.5 1923.3,-160.5"/>
</g>
<!-- PropertyAdRetrieveComponent -->
<g id="node17" class="node">
<title>PropertyAdRetrieveComponent</title>
<polygon fill="#ffffb3" stroke="black" points="1546.07,-122 1351.93,-122 1351.93,-86 1546.07,-86 1546.07,-122"/>
<text text-anchor="middle" x="1449" y="-99.8" font-family="Times,serif" font-size="14.00">PropertyAdRetrieveComponent</text>
</g>
<!-- PropertyAdRetrieveComponent&#45;&gt;AppModule -->
<g id="edge17" class="edge">
<title>PropertyAdRetrieveComponent&#45;&gt;AppModule</title>
<path fill="none" stroke="black" d="M1449,-122.01C1449,-138.05 1449,-159 1449,-159 1449,-159 1923.29,-159 1923.29,-159"/>
<polygon fill="black" stroke="black" points="1923.29,-162.5 1933.29,-159 1923.29,-155.5 1923.29,-162.5"/>
</g>
<!-- AppComponent  -->
<g id="node26" class="node">
<title>AppComponent </title>
<polygon fill="#80b1d3" stroke="black" points="2029.44,-252 1920.56,-252 1920.56,-216 2029.44,-216 2029.44,-252"/>
<text text-anchor="middle" x="1975" y="-229.8" font-family="Times,serif" font-size="14.00">AppComponent </text>
</g>
<!-- AppModule&#45;&gt;AppComponent  -->
<g id="edge25" class="edge">
<title>AppModule&#45;&gt;AppComponent </title>
<path fill="none" stroke="black" stroke-dasharray="1,5" d="M1975,-187.11C1975,-187.11 1975,-205.99 1975,-205.99"/>
<polygon fill="black" stroke="black" points="1971.5,-205.99 1975,-215.99 1978.5,-205.99 1971.5,-205.99"/>
</g>
<!-- AppRoutingModule -->
<g id="node19" class="node">
<title>AppRoutingModule</title>
<polygon fill="#8dd3c7" stroke="black" points="857.27,-122 854.27,-126 833.27,-126 830.27,-122 728.73,-122 728.73,-86 857.27,-86 857.27,-122"/>
<text text-anchor="middle" x="793" y="-99.8" font-family="Times,serif" font-size="14.00">AppRoutingModule</text>
</g>
<!-- AppRoutingModule&#45;&gt;AppModule -->
<g id="edge18" class="edge">
<title>AppRoutingModule&#45;&gt;AppModule</title>
<path fill="none" stroke="black" d="M793,-122.11C793,-141.34 793,-169 793,-169 793,-169 1923.28,-169 1923.28,-169"/>
<polygon fill="black" stroke="black" points="1923.28,-172.5 1933.28,-169 1923.28,-165.5 1923.28,-172.5"/>
</g>
<!-- AuthModule -->
<g id="node20" class="node">
<title>AuthModule</title>
<polygon fill="#8dd3c7" stroke="black" points="710.55,-122 707.55,-126 686.55,-126 683.55,-122 623.45,-122 623.45,-86 710.55,-86 710.55,-122"/>
<text text-anchor="middle" x="667" y="-99.8" font-family="Times,serif" font-size="14.00">AuthModule</text>
</g>
<!-- AuthModule&#45;&gt;AppModule -->
<g id="edge19" class="edge">
<title>AuthModule&#45;&gt;AppModule</title>
<path fill="none" stroke="black" d="M667,-122.22C667,-142.37 667,-172 667,-172 667,-172 1923.33,-172 1923.33,-172"/>
<polygon fill="black" stroke="black" points="1923.33,-175.5 1933.33,-172 1923.33,-168.5 1923.33,-175.5"/>
</g>
<!-- AuxiliaryModule -->
<g id="node21" class="node">
<title>AuxiliaryModule</title>
<polygon fill="#8dd3c7" stroke="black" points="605.7,-122 602.7,-126 581.7,-126 578.7,-122 492.3,-122 492.3,-86 605.7,-86 605.7,-122"/>
<text text-anchor="middle" x="549" y="-99.8" font-family="Times,serif" font-size="14.00">AuxiliaryModule</text>
</g>
<!-- AuxiliaryModule&#45;&gt;AppModule -->
<g id="edge20" class="edge">
<title>AuxiliaryModule&#45;&gt;AppModule</title>
<path fill="none" stroke="black" d="M549,-122.28C549,-143.32 549,-175 549,-175 549,-175 1923.09,-175 1923.09,-175"/>
<polygon fill="black" stroke="black" points="1923.09,-178.5 1933.09,-175 1923.09,-171.5 1923.09,-178.5"/>
</g>
<!-- GoogleMap -->
<g id="node22" class="node">
<title>GoogleMap</title>
<polygon fill="#8dd3c7" stroke="black" points="474.37,-122 471.37,-126 450.37,-126 447.37,-122 391.63,-122 391.63,-86 474.37,-86 474.37,-122"/>
<text text-anchor="middle" x="433" y="-99.8" font-family="Times,serif" font-size="14.00">GoogleMap</text>
</g>
<!-- GoogleMap&#45;&gt;AppModule -->
<g id="edge21" class="edge">
<title>GoogleMap&#45;&gt;AppModule</title>
<path fill="none" stroke="black" d="M433,-122.04C433,-143.66 433,-177 433,-177 433,-177 1922.96,-177 1922.96,-177"/>
<polygon fill="black" stroke="black" points="1922.96,-180.5 1932.96,-177 1922.96,-173.5 1922.96,-180.5"/>
</g>
<!-- HostingModule -->
<g id="node23" class="node">
<title>HostingModule</title>
<polygon fill="#8dd3c7" stroke="black" points="373.88,-122 370.88,-126 349.88,-126 346.88,-122 270.12,-122 270.12,-86 373.88,-86 373.88,-122"/>
<text text-anchor="middle" x="322" y="-99.8" font-family="Times,serif" font-size="14.00">HostingModule</text>
</g>
<!-- HostingModule&#45;&gt;AppModule -->
<g id="edge22" class="edge">
<title>HostingModule&#45;&gt;AppModule</title>
<path fill="none" stroke="black" d="M322,-122.01C322,-144.49 322,-180 322,-180 322,-180 1923.31,-180 1923.31,-180"/>
<polygon fill="black" stroke="black" points="1923.31,-183.5 1933.31,-180 1923.31,-176.5 1923.31,-183.5"/>
</g>
<!-- MapMarker -->
<g id="node24" class="node">
<title>MapMarker</title>
<polygon fill="#8dd3c7" stroke="black" points="252.35,-122 249.35,-126 228.35,-126 225.35,-122 169.65,-122 169.65,-86 252.35,-86 252.35,-122"/>
<text text-anchor="middle" x="211" y="-99.8" font-family="Times,serif" font-size="14.00">MapMarker</text>
</g>
<!-- MapMarker&#45;&gt;AppModule -->
<g id="edge23" class="edge">
<title>MapMarker&#45;&gt;AppModule</title>
<path fill="none" stroke="black" d="M211,-122.09C211,-145.13 211,-182 211,-182 211,-182 1923.14,-182 1923.14,-182"/>
<polygon fill="black" stroke="black" points="1923.14,-185.5 1933.14,-182 1923.14,-178.5 1923.14,-185.5"/>
</g>
<!-- NgOptimizedImage -->
<g id="node25" class="node">
<title>NgOptimizedImage</title>
<polygon fill="#8dd3c7" stroke="black" points="151.69,-122 148.69,-126 127.69,-126 124.69,-122 24.31,-122 24.31,-86 151.69,-86 151.69,-122"/>
<text text-anchor="middle" x="88" y="-99.8" font-family="Times,serif" font-size="14.00">NgOptimizedImage</text>
</g>
<!-- NgOptimizedImage&#45;&gt;AppModule -->
<g id="edge24" class="edge">
<title>NgOptimizedImage&#45;&gt;AppModule</title>
<path fill="none" stroke="black" d="M88,-122.38C88,-146.28 88,-185 88,-185 88,-185 1922.94,-185 1922.94,-185"/>
<polygon fill="black" stroke="black" points="1922.94,-188.5 1932.94,-185 1922.94,-181.5 1922.94,-188.5"/>
</g>
<!-- AuthGuard -->
<g id="node27" class="node">
<title>AuthGuard</title>
<ellipse fill="#fdb462" stroke="black" cx="1274" cy="-104" rx="54.46" ry="18"/>
<text text-anchor="middle" x="1274" y="-99.8" font-family="Times,serif" font-size="14.00">AuthGuard</text>
</g>
<!-- AuthGuard&#45;&gt;AppModule -->
<g id="edge26" class="edge">
<title>AuthGuard&#45;&gt;AppModule</title>
<path fill="none" stroke="black" d="M1274,-122.03C1274,-139.06 1274,-162 1274,-162 1274,-162 1923.25,-162 1923.25,-162"/>
<polygon fill="black" stroke="black" points="1923.25,-165.5 1933.25,-162 1923.25,-158.5 1923.25,-165.5"/>
</g>
<!-- AuthInterceptor -->
<g id="node28" class="node">
<title>AuthInterceptor</title>
<ellipse fill="#fdb462" stroke="black" cx="1129" cy="-104" rx="72.91" ry="18"/>
<text text-anchor="middle" x="1129" y="-99.8" font-family="Times,serif" font-size="14.00">AuthInterceptor</text>
</g>
<!-- AuthInterceptor&#45;&gt;AppModule -->
<g id="edge27" class="edge">
<title>AuthInterceptor&#45;&gt;AppModule</title>
<path fill="none" stroke="black" d="M1129,-122C1129,-139.68 1129,-164 1129,-164 1129,-164 1923.34,-164 1923.34,-164"/>
<polygon fill="black" stroke="black" points="1923.34,-167.5 1933.34,-164 1923.34,-160.5 1923.34,-167.5"/>
</g>
<!-- AuthorizeService -->
<g id="node29" class="node">
<title>AuthorizeService</title>
<ellipse fill="#fdb462" stroke="black" cx="960" cy="-104" rx="78.71" ry="18"/>
<text text-anchor="middle" x="960" y="-99.8" font-family="Times,serif" font-size="14.00">AuthorizeService</text>
</g>
<!-- AuthorizeService&#45;&gt;AppModule -->
<g id="edge28" class="edge">
<title>AuthorizeService&#45;&gt;AppModule</title>
<path fill="none" stroke="black" d="M960,-122.22C960,-140.83 960,-167 960,-167 960,-167 1923.32,-167 1923.32,-167"/>
<polygon fill="black" stroke="black" points="1923.32,-170.5 1933.32,-167 1923.32,-163.5 1923.32,-170.5"/>
</g>
</g>
</svg>
