<?xml version="1.0" encoding="UTF-8" standalone="no"?>
<!DOCTYPE svg PUBLIC "-//W3C//DTD SVG 1.1//EN"
 "http://www.w3.org/Graphics/SVG/1.1/DTD/svg11.dtd">
<!-- Generated by graphviz version 2.47.0 (20210316.0004)
 -->
<!-- Title: dependencies Pages: 1 -->
<svg width="1384pt" height="284pt"
 viewBox="0.00 0.00 1384.00 284.00" xmlns="http://www.w3.org/2000/svg" xmlns:xlink="http://www.w3.org/1999/xlink">
<g id="graph0" class="graph" transform="scale(1 1) rotate(0) translate(4 280)">
<title>dependencies</title>
<polygon fill="white" stroke="transparent" points="-4,4 -4,-280 1380,-280 1380,4 -4,4"/>
<text text-anchor="start" x="667.01" y="-42.4" font-family="Times-12" font-weight="bold" font-size="14.00">Legend</text>
<polygon fill="#ffffb3" stroke="transparent" points="454,-10 454,-30 474,-30 474,-10 454,-10"/>
<text text-anchor="start" x="477.63" y="-15.4" font-family="Times-12" font-size="14.00"> &#160;Declarations</text>
<polygon fill="#8dd3c7" stroke="transparent" points="567,-10 567,-30 587,-30 587,-10 567,-10"/>
<text text-anchor="start" x="590.73" y="-15.4" font-family="Times-12" font-size="14.00"> &#160;Module</text>
<polygon fill="#80b1d3" stroke="transparent" points="653,-10 653,-30 673,-30 673,-10 653,-10"/>
<text text-anchor="start" x="676.78" y="-15.4" font-family="Times-12" font-size="14.00"> &#160;Bootstrap</text>
<polygon fill="#fdb462" stroke="transparent" points="750,-10 750,-30 770,-30 770,-10 750,-10"/>
<text text-anchor="start" x="773.67" y="-15.4" font-family="Times-12" font-size="14.00"> &#160;Providers</text>
<polygon fill="#fb8072" stroke="transparent" points="846,-10 846,-30 866,-30 866,-10 846,-10"/>
<text text-anchor="start" x="869.73" y="-15.4" font-family="Times-12" font-size="14.00"> &#160;Exports</text>
<g id="clust1" class="cluster">
<title>cluster_AuthModule</title>
<polygon fill="none" stroke="black" stroke-dasharray="1,5" points="8,-70 8,-268 1368,-268 1368,-70 8,-70"/>
</g>
<g id="clust11" class="cluster">
<title>cluster_AuthModule_imports</title>
<polygon fill="none" stroke="black" points="1230,-78 1230,-130 1360,-130 1360,-78 1230,-78"/>
</g>
<g id="clust12" class="cluster">
<title>cluster_AuthModule_exports</title>
<polygon fill="none" stroke="black" points="396,-208 396,-260 1003,-260 1003,-208 396,-208"/>
</g>
<g id="clust2" class="cluster">
<title>cluster_AuthModule_declarations</title>
<polygon fill="none" stroke="black" points="16,-78 16,-130 1222,-130 1222,-78 16,-78"/>
</g>
<!-- ConfirmEmailComponent -->
<g id="node1" class="node">
<title>ConfirmEmailComponent</title>
<polygon fill="#ffffb3" stroke="black" points="1214.21,-122 1051.79,-122 1051.79,-86 1214.21,-86 1214.21,-122"/>
<text text-anchor="middle" x="1133" y="-99.8" font-family="Times,serif" font-size="14.00">ConfirmEmailComponent</text>
</g>
<!-- AuthModule -->
<g id="node9" class="node">
<title>AuthModule</title>
<polygon fill="#8dd3c7" stroke="black" points="729.55,-187 726.55,-191 705.55,-191 702.55,-187 642.45,-187 642.45,-151 729.55,-151 729.55,-187"/>
<text text-anchor="middle" x="686" y="-164.8" font-family="Times,serif" font-size="14.00">AuthModule</text>
</g>
<!-- ConfirmEmailComponent&#45;&gt;AuthModule -->
<g id="edge1" class="edge">
<title>ConfirmEmailComponent&#45;&gt;AuthModule</title>
<path fill="none" stroke="black" d="M1133,-122.11C1133,-141.34 1133,-169 1133,-169 1133,-169 739.67,-169 739.67,-169"/>
<polygon fill="black" stroke="black" points="739.67,-165.5 729.67,-169 739.67,-172.5 739.67,-165.5"/>
</g>
<!-- GoogleComponent -->
<g id="node2" class="node">
<title>GoogleComponent</title>
<polygon fill="#ffffb3" stroke="black" points="1034.05,-122 911.95,-122 911.95,-86 1034.05,-86 1034.05,-122"/>
<text text-anchor="middle" x="973" y="-99.8" font-family="Times,serif" font-size="14.00">GoogleComponent</text>
</g>
<!-- GoogleComponent&#45;&gt;AuthModule -->
<g id="edge2" class="edge">
<title>GoogleComponent&#45;&gt;AuthModule</title>
<path fill="none" stroke="black" d="M953.2,-122.02C953.2,-139.37 953.2,-163 953.2,-163 953.2,-163 739.82,-163 739.82,-163"/>
<polygon fill="black" stroke="black" points="739.82,-159.5 729.82,-163 739.82,-166.5 739.82,-159.5"/>
</g>
<!-- LogoutComponent -->
<g id="node3" class="node">
<title>LogoutComponent</title>
<polygon fill="#ffffb3" stroke="black" points="893.78,-122 772.22,-122 772.22,-86 893.78,-86 893.78,-122"/>
<text text-anchor="middle" x="833" y="-99.8" font-family="Times,serif" font-size="14.00">LogoutComponent</text>
</g>
<!-- LogoutComponent&#45;&gt;AuthModule -->
<g id="edge3" class="edge">
<title>LogoutComponent&#45;&gt;AuthModule</title>
<path fill="none" stroke="black" d="M799.93,-122.24C799.93,-137.57 799.93,-157 799.93,-157 799.93,-157 739.72,-157 739.72,-157"/>
<polygon fill="black" stroke="black" points="739.72,-153.5 729.72,-157 739.72,-160.5 739.72,-153.5"/>
</g>
<!-- MicrosoftComponent -->
<g id="node4" class="node">
<title>MicrosoftComponent</title>
<polygon fill="#ffffb3" stroke="black" points="754.04,-122 617.96,-122 617.96,-86 754.04,-86 754.04,-122"/>
<text text-anchor="middle" x="686" y="-99.8" font-family="Times,serif" font-size="14.00">MicrosoftComponent</text>
</g>
<!-- MicrosoftComponent&#45;&gt;AuthModule -->
<g id="edge4" class="edge">
<title>MicrosoftComponent&#45;&gt;AuthModule</title>
<path fill="none" stroke="black" d="M686,-122.11C686,-122.11 686,-140.99 686,-140.99"/>
<polygon fill="black" stroke="black" points="682.5,-140.99 686,-150.99 689.5,-140.99 682.5,-140.99"/>
</g>
<!-- RecoverPwComponent -->
<g id="node5" class="node">
<title>RecoverPwComponent</title>
<polygon fill="#ffffb3" stroke="black" points="599.86,-122 454.14,-122 454.14,-86 599.86,-86 599.86,-122"/>
<text text-anchor="middle" x="527" y="-99.8" font-family="Times,serif" font-size="14.00">RecoverPwComponent</text>
</g>
<!-- RecoverPwComponent&#45;&gt;AuthModule -->
<g id="edge5" class="edge">
<title>RecoverPwComponent&#45;&gt;AuthModule</title>
<path fill="none" stroke="black" d="M572.01,-122.24C572.01,-137.57 572.01,-157 572.01,-157 572.01,-157 632.25,-157 632.25,-157"/>
<polygon fill="black" stroke="black" points="632.25,-160.5 642.25,-157 632.25,-153.5 632.25,-160.5"/>
</g>
<!-- RegisterComponent -->
<g id="node6" class="node">
<title>RegisterComponent</title>
<polygon fill="#ffffb3" stroke="black" points="435.98,-122 308.02,-122 308.02,-86 435.98,-86 435.98,-122"/>
<text text-anchor="middle" x="372" y="-99.8" font-family="Times,serif" font-size="14.00">RegisterComponent</text>
</g>
<!-- RegisterComponent&#45;&gt;AuthModule -->
<g id="edge6" class="edge">
<title>RegisterComponent&#45;&gt;AuthModule</title>
<path fill="none" stroke="black" d="M419.95,-122.02C419.95,-139.37 419.95,-163 419.95,-163 419.95,-163 632.37,-163 632.37,-163"/>
<polygon fill="black" stroke="black" points="632.37,-166.5 642.37,-163 632.37,-159.5 632.37,-166.5"/>
</g>
<!-- ResetPwComponent -->
<g id="node7" class="node">
<title>ResetPwComponent</title>
<polygon fill="#ffffb3" stroke="black" points="290.32,-122 159.68,-122 159.68,-86 290.32,-86 290.32,-122"/>
<text text-anchor="middle" x="225" y="-99.8" font-family="Times,serif" font-size="14.00">ResetPwComponent</text>
</g>
<!-- ResetPwComponent&#45;&gt;AuthModule -->
<g id="edge7" class="edge">
<title>ResetPwComponent&#45;&gt;AuthModule</title>
<path fill="none" stroke="black" d="M225,-122.11C225,-141.34 225,-169 225,-169 225,-169 632.21,-169 632.21,-169"/>
<polygon fill="black" stroke="black" points="632.21,-172.5 642.21,-169 632.21,-165.5 632.21,-172.5"/>
</g>
<!-- SignInComponent -->
<g id="node8" class="node">
<title>SignInComponent</title>
<polygon fill="#ffffb3" stroke="black" points="142.17,-122 23.83,-122 23.83,-86 142.17,-86 142.17,-122"/>
<text text-anchor="middle" x="83" y="-99.8" font-family="Times,serif" font-size="14.00">SignInComponent</text>
</g>
<!-- SignInComponent&#45;&gt;AuthModule -->
<g id="edge8" class="edge">
<title>SignInComponent&#45;&gt;AuthModule</title>
<path fill="none" stroke="black" d="M83,-122.28C83,-143.32 83,-175 83,-175 83,-175 632.15,-175 632.15,-175"/>
<polygon fill="black" stroke="black" points="632.15,-178.5 642.15,-175 632.15,-171.5 632.15,-178.5"/>
</g>
<!-- RecoverPwComponent  -->
<g id="node11" class="node">
<title>RecoverPwComponent </title>
<polygon fill="#fb8072" stroke="black" points="994.86,-252 845.14,-252 845.14,-216 994.86,-216 994.86,-252"/>
<text text-anchor="middle" x="920" y="-229.8" font-family="Times,serif" font-size="14.00">RecoverPwComponent </text>
</g>
<!-- AuthModule&#45;&gt;RecoverPwComponent  -->
<g id="edge10" class="edge">
<title>AuthModule&#45;&gt;RecoverPwComponent </title>
<path fill="none" stroke="black" stroke-dasharray="5,2" d="M729.98,-181C784.29,-181 869.6,-181 869.6,-181 869.6,-181 869.6,-205.76 869.6,-205.76"/>
<polygon fill="black" stroke="black" points="866.1,-205.76 869.6,-215.76 873.1,-205.76 866.1,-205.76"/>
</g>
<!-- RegisterComponent  -->
<g id="node12" class="node">
<title>RegisterComponent </title>
<polygon fill="#fb8072" stroke="black" points="827.99,-252 696.01,-252 696.01,-216 827.99,-216 827.99,-252"/>
<text text-anchor="middle" x="762" y="-229.8" font-family="Times,serif" font-size="14.00">RegisterComponent </text>
</g>
<!-- AuthModule&#45;&gt;RegisterComponent  -->
<g id="edge11" class="edge">
<title>AuthModule&#45;&gt;RegisterComponent </title>
<path fill="none" stroke="black" stroke-dasharray="5,2" d="M713.02,-187.11C713.02,-187.11 713.02,-205.99 713.02,-205.99"/>
<polygon fill="black" stroke="black" points="709.52,-205.99 713.02,-215.99 716.52,-205.99 709.52,-205.99"/>
</g>
<!-- ResetPwComponent  -->
<g id="node13" class="node">
<title>ResetPwComponent </title>
<polygon fill="#fb8072" stroke="black" points="677.82,-252 544.18,-252 544.18,-216 677.82,-216 677.82,-252"/>
<text text-anchor="middle" x="611" y="-229.8" font-family="Times,serif" font-size="14.00">ResetPwComponent </text>
</g>
<!-- AuthModule&#45;&gt;ResetPwComponent  -->
<g id="edge12" class="edge">
<title>AuthModule&#45;&gt;ResetPwComponent </title>
<path fill="none" stroke="black" stroke-dasharray="5,2" d="M660.07,-187.11C660.07,-187.11 660.07,-205.99 660.07,-205.99"/>
<polygon fill="black" stroke="black" points="656.57,-205.99 660.07,-215.99 663.57,-205.99 656.57,-205.99"/>
</g>
<!-- SignInComponent  -->
<g id="node14" class="node">
<title>SignInComponent </title>
<polygon fill="#fb8072" stroke="black" points="526.17,-252 403.83,-252 403.83,-216 526.17,-216 526.17,-252"/>
<text text-anchor="middle" x="465" y="-229.8" font-family="Times,serif" font-size="14.00">SignInComponent </text>
</g>
<!-- AuthModule&#45;&gt;SignInComponent  -->
<g id="edge13" class="edge">
<title>AuthModule&#45;&gt;SignInComponent </title>
<path fill="none" stroke="black" stroke-dasharray="5,2" d="M642.03,-181C584.27,-181 490.08,-181 490.08,-181 490.08,-181 490.08,-205.76 490.08,-205.76"/>
<polygon fill="black" stroke="black" points="486.58,-205.76 490.08,-215.76 493.58,-205.76 486.58,-205.76"/>
</g>
<!-- AuxiliaryModule -->
<g id="node10" class="node">
<title>AuxiliaryModule</title>
<polygon fill="#8dd3c7" stroke="black" points="1351.7,-122 1348.7,-126 1327.7,-126 1324.7,-122 1238.3,-122 1238.3,-86 1351.7,-86 1351.7,-122"/>
<text text-anchor="middle" x="1295" y="-99.8" font-family="Times,serif" font-size="14.00">AuxiliaryModule</text>
</g>
<!-- AuxiliaryModule&#45;&gt;AuthModule -->
<g id="edge9" class="edge">
<title>AuxiliaryModule&#45;&gt;AuthModule</title>
<path fill="none" stroke="black" d="M1295,-122.28C1295,-143.32 1295,-175 1295,-175 1295,-175 739.8,-175 739.8,-175"/>
<polygon fill="black" stroke="black" points="739.8,-171.5 729.8,-175 739.8,-178.5 739.8,-171.5"/>
</g>
</g>
</svg>
