<?xml version="1.0" encoding="UTF-8" standalone="no"?>
<!DOCTYPE svg PUBLIC "-//W3C//DTD SVG 1.1//EN"
 "http://www.w3.org/Graphics/SVG/1.1/DTD/svg11.dtd">
<!-- Generated by graphviz version 2.47.0 (20210316.0004)
 -->
<!-- Title: dependencies Pages: 1 -->
<svg width="1758pt" height="284pt"
 viewBox="0.00 0.00 1758.00 284.00" xmlns="http://www.w3.org/2000/svg" xmlns:xlink="http://www.w3.org/1999/xlink">
<g id="graph0" class="graph" transform="scale(1 1) rotate(0) translate(4 280)">
<title>dependencies</title>
<polygon fill="white" stroke="transparent" points="-4,4 -4,-280 1754,-280 1754,4 -4,4"/>
<text text-anchor="start" x="854.01" y="-42.4" font-family="Times-12" font-weight="bold" font-size="14.00">Legend</text>
<polygon fill="#ffffb3" stroke="transparent" points="641,-10 641,-30 661,-30 661,-10 641,-10"/>
<text text-anchor="start" x="664.63" y="-15.4" font-family="Times-12" font-size="14.00"> &#160;Declarations</text>
<polygon fill="#8dd3c7" stroke="transparent" points="754,-10 754,-30 774,-30 774,-10 754,-10"/>
<text text-anchor="start" x="777.73" y="-15.4" font-family="Times-12" font-size="14.00"> &#160;Module</text>
<polygon fill="#80b1d3" stroke="transparent" points="840,-10 840,-30 860,-30 860,-10 840,-10"/>
<text text-anchor="start" x="863.78" y="-15.4" font-family="Times-12" font-size="14.00"> &#160;Bootstrap</text>
<polygon fill="#fdb462" stroke="transparent" points="937,-10 937,-30 957,-30 957,-10 937,-10"/>
<text text-anchor="start" x="960.67" y="-15.4" font-family="Times-12" font-size="14.00"> &#160;Providers</text>
<polygon fill="#fb8072" stroke="transparent" points="1033,-10 1033,-30 1053,-30 1053,-10 1033,-10"/>
<text text-anchor="start" x="1056.73" y="-15.4" font-family="Times-12" font-size="14.00"> &#160;Exports</text>
<g id="clust1" class="cluster">
<title>cluster_HostingModule</title>
<polygon fill="none" stroke="black" stroke-dasharray="1,5" points="8,-70 8,-268 1742,-268 1742,-70 8,-70"/>
</g>
<g id="clust11" class="cluster">
<title>cluster_HostingModule_bootstrap</title>
<polygon fill="none" stroke="black" points="721,-208 721,-260 873,-260 873,-208 721,-208"/>
</g>
<g id="clust2" class="cluster">
<title>cluster_HostingModule_declarations</title>
<polygon fill="none" stroke="black" points="614,-78 614,-130 1734,-130 1734,-78 614,-78"/>
</g>
<g id="clust9" class="cluster">
<title>cluster_HostingModule_imports</title>
<polygon fill="none" stroke="black" points="182,-78 182,-130 606,-130 606,-78 182,-78"/>
</g>
<g id="clust12" class="cluster">
<title>cluster_HostingModule_providers</title>
<polygon fill="none" stroke="black" points="16,-78 16,-130 174,-130 174,-78 16,-78"/>
</g>
<!-- CalendarComponent -->
<g id="node1" class="node">
<title>CalendarComponent</title>
<polygon fill="#ffffb3" stroke="black" points="1725.86,-122 1594.14,-122 1594.14,-86 1725.86,-86 1725.86,-122"/>
<text text-anchor="middle" x="1660" y="-99.8" font-family="Times,serif" font-size="14.00">CalendarComponent</text>
</g>
<!-- HostingModule -->
<g id="node7" class="node">
<title>HostingModule</title>
<polygon fill="#8dd3c7" stroke="black" points="848.88,-187 845.88,-191 824.88,-191 821.88,-187 745.12,-187 745.12,-151 848.88,-151 848.88,-187"/>
<text text-anchor="middle" x="797" y="-164.8" font-family="Times,serif" font-size="14.00">HostingModule</text>
</g>
<!-- CalendarComponent&#45;&gt;HostingModule -->
<g id="edge1" class="edge">
<title>CalendarComponent&#45;&gt;HostingModule</title>
<path fill="none" stroke="black" d="M1660,-122.01C1660,-144.49 1660,-180 1660,-180 1660,-180 859.04,-180 859.04,-180"/>
<polygon fill="black" stroke="black" points="859.04,-176.5 849.04,-180 859.04,-183.5 859.04,-176.5"/>
</g>
<!-- CalendarPopupComponent -->
<g id="node2" class="node">
<title>CalendarPopupComponent</title>
<polygon fill="#ffffb3" stroke="black" points="1575.65,-122 1408.35,-122 1408.35,-86 1575.65,-86 1575.65,-122"/>
<text text-anchor="middle" x="1492" y="-99.8" font-family="Times,serif" font-size="14.00">CalendarPopupComponent</text>
</g>
<!-- CalendarPopupComponent&#45;&gt;HostingModule -->
<g id="edge2" class="edge">
<title>CalendarPopupComponent&#45;&gt;HostingModule</title>
<path fill="none" stroke="black" d="M1492,-122.13C1492,-142.57 1492,-173 1492,-173 1492,-173 858.95,-173 858.95,-173"/>
<polygon fill="black" stroke="black" points="858.95,-169.5 848.95,-173 858.95,-176.5 858.95,-169.5"/>
</g>
<!-- HostingBookingComponent -->
<g id="node3" class="node">
<title>HostingBookingComponent</title>
<polygon fill="#ffffb3" stroke="black" points="1389.89,-122 1216.11,-122 1216.11,-86 1389.89,-86 1389.89,-122"/>
<text text-anchor="middle" x="1303" y="-99.8" font-family="Times,serif" font-size="14.00">HostingBookingComponent</text>
</g>
<!-- HostingBookingComponent&#45;&gt;HostingModule -->
<g id="edge3" class="edge">
<title>HostingBookingComponent&#45;&gt;HostingModule</title>
<path fill="none" stroke="black" d="M1303,-122.27C1303,-140.56 1303,-166 1303,-166 1303,-166 859.25,-166 859.25,-166"/>
<polygon fill="black" stroke="black" points="859.25,-162.5 849.25,-166 859.25,-169.5 859.25,-162.5"/>
</g>
<!-- PropertyPerformanceComponent -->
<g id="node4" class="node">
<title>PropertyPerformanceComponent</title>
<polygon fill="#ffffb3" stroke="black" points="1198.55,-122 997.45,-122 997.45,-86 1198.55,-86 1198.55,-122"/>
<text text-anchor="middle" x="1098" y="-99.8" font-family="Times,serif" font-size="14.00">PropertyPerformanceComponent</text>
</g>
<!-- PropertyPerformanceComponent&#45;&gt;HostingModule -->
<g id="edge4" class="edge">
<title>PropertyPerformanceComponent&#45;&gt;HostingModule</title>
<path fill="none" stroke="black" d="M1098,-122.01C1098,-138.05 1098,-159 1098,-159 1098,-159 859.09,-159 859.09,-159"/>
<polygon fill="black" stroke="black" points="859.09,-155.5 849.09,-159 859.09,-162.5 859.09,-155.5"/>
</g>
<!-- PropertyPromoteComponent -->
<g id="node5" class="node">
<title>PropertyPromoteComponent</title>
<polygon fill="#ffffb3" stroke="black" points="979.48,-122 802.52,-122 802.52,-86 979.48,-86 979.48,-122"/>
<text text-anchor="middle" x="891" y="-99.8" font-family="Times,serif" font-size="14.00">PropertyPromoteComponent</text>
</g>
<!-- PropertyPromoteComponent&#45;&gt;HostingModule -->
<g id="edge5" class="edge">
<title>PropertyPromoteComponent&#45;&gt;HostingModule</title>
<path fill="none" stroke="black" d="M825.73,-122.11C825.73,-122.11 825.73,-140.99 825.73,-140.99"/>
<polygon fill="black" stroke="black" points="822.23,-140.99 825.73,-150.99 829.23,-140.99 822.23,-140.99"/>
</g>
<!-- SidePropertiesComponent -->
<g id="node6" class="node">
<title>SidePropertiesComponent</title>
<polygon fill="#ffffb3" stroke="black" points="784.48,-122 621.52,-122 621.52,-86 784.48,-86 784.48,-122"/>
<text text-anchor="middle" x="703" y="-99.8" font-family="Times,serif" font-size="14.00">SidePropertiesComponent</text>
</g>
<!-- SidePropertiesComponent&#45;&gt;HostingModule -->
<g id="edge6" class="edge">
<title>SidePropertiesComponent&#45;&gt;HostingModule</title>
<path fill="none" stroke="black" d="M764.77,-122.11C764.77,-122.11 764.77,-140.99 764.77,-140.99"/>
<polygon fill="black" stroke="black" points="761.27,-140.99 764.77,-150.99 768.27,-140.99 761.27,-140.99"/>
</g>
<!-- CalendarComponent  -->
<g id="node11" class="node">
<title>CalendarComponent </title>
<polygon fill="#80b1d3" stroke="black" points="864.86,-252 729.14,-252 729.14,-216 864.86,-216 864.86,-252"/>
<text text-anchor="middle" x="797" y="-229.8" font-family="Times,serif" font-size="14.00">CalendarComponent </text>
</g>
<!-- HostingModule&#45;&gt;CalendarComponent  -->
<g id="edge10" class="edge">
<title>HostingModule&#45;&gt;CalendarComponent </title>
<path fill="none" stroke="black" stroke-dasharray="1,5" d="M797,-187.11C797,-187.11 797,-205.99 797,-205.99"/>
<polygon fill="black" stroke="black" points="793.5,-205.99 797,-215.99 800.5,-205.99 793.5,-205.99"/>
</g>
<!-- AppRoutingModule -->
<g id="node8" class="node">
<title>AppRoutingModule</title>
<polygon fill="#8dd3c7" stroke="black" points="598.27,-122 595.27,-126 574.27,-126 571.27,-122 469.73,-122 469.73,-86 598.27,-86 598.27,-122"/>
<text text-anchor="middle" x="534" y="-99.8" font-family="Times,serif" font-size="14.00">AppRoutingModule</text>
</g>
<!-- AppRoutingModule&#45;&gt;HostingModule -->
<g id="edge7" class="edge">
<title>AppRoutingModule&#45;&gt;HostingModule</title>
<path fill="none" stroke="black" d="M534,-122.01C534,-138.05 534,-159 534,-159 534,-159 735.04,-159 735.04,-159"/>
<polygon fill="black" stroke="black" points="735.04,-162.5 745.04,-159 735.04,-155.5 735.04,-162.5"/>
</g>
<!-- AuxiliaryModule -->
<g id="node9" class="node">
<title>AuxiliaryModule</title>
<polygon fill="#8dd3c7" stroke="black" points="451.7,-122 448.7,-126 427.7,-126 424.7,-122 338.3,-122 338.3,-86 451.7,-86 451.7,-122"/>
<text text-anchor="middle" x="395" y="-99.8" font-family="Times,serif" font-size="14.00">AuxiliaryModule</text>
</g>
<!-- AuxiliaryModule&#45;&gt;HostingModule -->
<g id="edge8" class="edge">
<title>AuxiliaryModule&#45;&gt;HostingModule</title>
<path fill="none" stroke="black" d="M395,-122.27C395,-140.56 395,-166 395,-166 395,-166 734.86,-166 734.86,-166"/>
<polygon fill="black" stroke="black" points="734.86,-169.5 744.86,-166 734.86,-162.5 734.86,-169.5"/>
</g>
<!-- PaymentComponent -->
<g id="node10" class="node">
<title>PaymentComponent</title>
<polygon fill="#8dd3c7" stroke="black" points="320.33,-122 317.33,-126 296.33,-126 293.33,-122 189.67,-122 189.67,-86 320.33,-86 320.33,-122"/>
<text text-anchor="middle" x="255" y="-99.8" font-family="Times,serif" font-size="14.00">PaymentComponent</text>
</g>
<!-- PaymentComponent&#45;&gt;HostingModule -->
<g id="edge9" class="edge">
<title>PaymentComponent&#45;&gt;HostingModule</title>
<path fill="none" stroke="black" d="M255,-122.13C255,-142.57 255,-173 255,-173 255,-173 735.03,-173 735.03,-173"/>
<polygon fill="black" stroke="black" points="735.03,-176.5 745.03,-173 735.03,-169.5 735.03,-176.5"/>
</g>
<!-- HostingService -->
<g id="node12" class="node">
<title>HostingService</title>
<ellipse fill="#fdb462" stroke="black" cx="95" cy="-104" rx="70.64" ry="18"/>
<text text-anchor="middle" x="95" y="-99.8" font-family="Times,serif" font-size="14.00">HostingService</text>
</g>
<!-- HostingService&#45;&gt;HostingModule -->
<g id="edge11" class="edge">
<title>HostingService&#45;&gt;HostingModule</title>
<path fill="none" stroke="black" d="M95,-122.01C95,-144.49 95,-180 95,-180 95,-180 735.1,-180 735.1,-180"/>
<polygon fill="black" stroke="black" points="735.1,-183.5 745.1,-180 735.1,-176.5 735.1,-183.5"/>
</g>
</g>
</svg>
