<?xml version="1.0" encoding="UTF-8" standalone="no"?>
<!DOCTYPE svg PUBLIC "-//W3C//DTD SVG 1.1//EN"
 "http://www.w3.org/Graphics/SVG/1.1/DTD/svg11.dtd">
<!-- Generated by graphviz version 2.47.0 (20210316.0004)
 -->
<!-- Title: dependencies Pages: 1 -->
<svg width="933pt" height="284pt"
 viewBox="0.00 0.00 933.00 284.00" xmlns="http://www.w3.org/2000/svg" xmlns:xlink="http://www.w3.org/1999/xlink">
<g id="graph0" class="graph" transform="scale(1 1) rotate(0) translate(4 280)">
<title>dependencies</title>
<polygon fill="white" stroke="transparent" points="-4,4 -4,-280 929,-280 929,4 -4,4"/>
<text text-anchor="start" x="441.51" y="-42.4" font-family="Times-12" font-weight="bold" font-size="14.00">Legend</text>
<polygon fill="#ffffb3" stroke="transparent" points="228.5,-10 228.5,-30 248.5,-30 248.5,-10 228.5,-10"/>
<text text-anchor="start" x="252.13" y="-15.4" font-family="Times-12" font-size="14.00"> &#160;Declarations</text>
<polygon fill="#8dd3c7" stroke="transparent" points="341.5,-10 341.5,-30 361.5,-30 361.5,-10 341.5,-10"/>
<text text-anchor="start" x="365.23" y="-15.4" font-family="Times-12" font-size="14.00"> &#160;Module</text>
<polygon fill="#80b1d3" stroke="transparent" points="427.5,-10 427.5,-30 447.5,-30 447.5,-10 427.5,-10"/>
<text text-anchor="start" x="451.28" y="-15.4" font-family="Times-12" font-size="14.00"> &#160;Bootstrap</text>
<polygon fill="#fdb462" stroke="transparent" points="524.5,-10 524.5,-30 544.5,-30 544.5,-10 524.5,-10"/>
<text text-anchor="start" x="548.17" y="-15.4" font-family="Times-12" font-size="14.00"> &#160;Providers</text>
<polygon fill="#fb8072" stroke="transparent" points="620.5,-10 620.5,-30 640.5,-30 640.5,-10 620.5,-10"/>
<text text-anchor="start" x="644.23" y="-15.4" font-family="Times-12" font-size="14.00"> &#160;Exports</text>
<g id="clust1" class="cluster">
<title>cluster_AuxiliaryModule</title>
<polygon fill="none" stroke="black" stroke-dasharray="1,5" points="8,-70 8,-268 917,-268 917,-70 8,-70"/>
</g>
<g id="clust2" class="cluster">
<title>cluster_AuxiliaryModule_declarations</title>
<polygon fill="none" stroke="black" points="120,-78 120,-130 909,-130 909,-78 120,-78"/>
</g>
<g id="clust9" class="cluster">
<title>cluster_AuxiliaryModule_exports</title>
<polygon fill="none" stroke="black" points="447,-208 447,-260 587,-260 587,-208 447,-208"/>
</g>
<g id="clust8" class="cluster">
<title>cluster_AuxiliaryModule_imports</title>
<polygon fill="none" stroke="black" points="16,-78 16,-130 112,-130 112,-78 16,-78"/>
</g>
<!-- BadRequestComponent -->
<g id="node1" class="node">
<title>BadRequestComponent</title>
<polygon fill="#ffffb3" stroke="black" points="901.48,-122 752.52,-122 752.52,-86 901.48,-86 901.48,-122"/>
<text text-anchor="middle" x="827" y="-99.8" font-family="Times,serif" font-size="14.00">BadRequestComponent</text>
</g>
<!-- AuxiliaryModule -->
<g id="node6" class="node">
<title>AuxiliaryModule</title>
<polygon fill="#8dd3c7" stroke="black" points="573.7,-187 570.7,-191 549.7,-191 546.7,-187 460.3,-187 460.3,-151 573.7,-151 573.7,-187"/>
<text text-anchor="middle" x="517" y="-164.8" font-family="Times,serif" font-size="14.00">AuxiliaryModule</text>
</g>
<!-- BadRequestComponent&#45;&gt;AuxiliaryModule -->
<g id="edge1" class="edge">
<title>BadRequestComponent&#45;&gt;AuxiliaryModule</title>
<path fill="none" stroke="black" d="M851.83,-122.29C851.83,-144.21 851.83,-178 851.83,-178 851.83,-178 583.8,-178 583.8,-178"/>
<polygon fill="black" stroke="black" points="583.8,-174.5 573.8,-178 583.8,-181.5 583.8,-174.5"/>
</g>
<!-- BadRequestComponent&#45;&gt;AuxiliaryModule -->
<g id="edge2" class="edge">
<title>BadRequestComponent&#45;&gt;AuxiliaryModule</title>
<path fill="none" stroke="black" d="M802.17,-122.11C802.17,-141.34 802.17,-169 802.17,-169 802.17,-169 583.68,-169 583.68,-169"/>
<polygon fill="black" stroke="black" points="583.68,-165.5 573.68,-169 583.68,-172.5 583.68,-165.5"/>
</g>
<!-- ForbiddenComponent -->
<g id="node2" class="node">
<title>ForbiddenComponent</title>
<polygon fill="#ffffb3" stroke="black" points="734.38,-122 595.62,-122 595.62,-86 734.38,-86 734.38,-122"/>
<text text-anchor="middle" x="665" y="-99.8" font-family="Times,serif" font-size="14.00">ForbiddenComponent</text>
</g>
<!-- ForbiddenComponent&#45;&gt;AuxiliaryModule -->
<g id="edge3" class="edge">
<title>ForbiddenComponent&#45;&gt;AuxiliaryModule</title>
<path fill="none" stroke="black" d="M665,-122.03C665,-138.4 665,-160 665,-160 665,-160 583.8,-160 583.8,-160"/>
<polygon fill="black" stroke="black" points="583.8,-156.5 573.8,-160 583.8,-163.5 583.8,-156.5"/>
</g>
<!-- LoaderComponent -->
<g id="node3" class="node">
<title>LoaderComponent</title>
<polygon fill="#ffffb3" stroke="black" points="577.47,-122 456.53,-122 456.53,-86 577.47,-86 577.47,-122"/>
<text text-anchor="middle" x="517" y="-99.8" font-family="Times,serif" font-size="14.00">LoaderComponent</text>
</g>
<!-- LoaderComponent&#45;&gt;AuxiliaryModule -->
<g id="edge4" class="edge">
<title>LoaderComponent&#45;&gt;AuxiliaryModule</title>
<path fill="none" stroke="black" d="M517,-122.11C517,-122.11 517,-140.99 517,-140.99"/>
<polygon fill="black" stroke="black" points="513.5,-140.99 517,-150.99 520.5,-140.99 513.5,-140.99"/>
</g>
<!-- NotfoundComponent -->
<g id="node4" class="node">
<title>NotfoundComponent</title>
<polygon fill="#ffffb3" stroke="black" points="438.49,-122 303.51,-122 303.51,-86 438.49,-86 438.49,-122"/>
<text text-anchor="middle" x="371" y="-99.8" font-family="Times,serif" font-size="14.00">NotfoundComponent</text>
</g>
<!-- NotfoundComponent&#45;&gt;AuxiliaryModule -->
<g id="edge5" class="edge">
<title>NotfoundComponent&#45;&gt;AuxiliaryModule</title>
<path fill="none" stroke="black" d="M371,-122.03C371,-138.4 371,-160 371,-160 371,-160 450.13,-160 450.13,-160"/>
<polygon fill="black" stroke="black" points="450.13,-163.5 460.13,-160 450.13,-156.5 450.13,-163.5"/>
</g>
<!-- UnauthorizedComponent -->
<g id="node5" class="node">
<title>UnauthorizedComponent</title>
<polygon fill="#ffffb3" stroke="black" points="285.53,-122 128.47,-122 128.47,-86 285.53,-86 285.53,-122"/>
<text text-anchor="middle" x="207" y="-99.8" font-family="Times,serif" font-size="14.00">UnauthorizedComponent</text>
</g>
<!-- UnauthorizedComponent&#45;&gt;AuxiliaryModule -->
<g id="edge6" class="edge">
<title>UnauthorizedComponent&#45;&gt;AuxiliaryModule</title>
<path fill="none" stroke="black" d="M207,-122.11C207,-141.34 207,-169 207,-169 207,-169 450.14,-169 450.14,-169"/>
<polygon fill="black" stroke="black" points="450.14,-172.5 460.14,-169 450.14,-165.5 450.14,-172.5"/>
</g>
<!-- LoaderComponent  -->
<g id="node8" class="node">
<title>LoaderComponent </title>
<polygon fill="#fb8072" stroke="black" points="579.48,-252 454.52,-252 454.52,-216 579.48,-216 579.48,-252"/>
<text text-anchor="middle" x="517" y="-229.8" font-family="Times,serif" font-size="14.00">LoaderComponent </text>
</g>
<!-- AuxiliaryModule&#45;&gt;LoaderComponent  -->
<g id="edge8" class="edge">
<title>AuxiliaryModule&#45;&gt;LoaderComponent </title>
<path fill="none" stroke="black" stroke-dasharray="5,2" d="M517,-187.11C517,-187.11 517,-205.99 517,-205.99"/>
<polygon fill="black" stroke="black" points="513.5,-205.99 517,-215.99 520.5,-205.99 513.5,-205.99"/>
</g>
<!-- RouterLink -->
<g id="node7" class="node">
<title>RouterLink</title>
<polygon fill="#8dd3c7" stroke="black" points="104.05,-122 101.05,-126 80.05,-126 77.05,-122 23.95,-122 23.95,-86 104.05,-86 104.05,-122"/>
<text text-anchor="middle" x="64" y="-99.8" font-family="Times,serif" font-size="14.00">RouterLink</text>
</g>
<!-- RouterLink&#45;&gt;AuxiliaryModule -->
<g id="edge7" class="edge">
<title>RouterLink&#45;&gt;AuxiliaryModule</title>
<path fill="none" stroke="black" d="M64,-122.29C64,-144.21 64,-178 64,-178 64,-178 450.09,-178 450.09,-178"/>
<polygon fill="black" stroke="black" points="450.09,-181.5 460.09,-178 450.09,-174.5 450.09,-181.5"/>
</g>
</g>
</svg>
